<?xml version="1.0" encoding="UTF-8"?>
<svg xmlns="http://www.w3.org/2000/svg" width="515" height="401" viewBox="0 0 515 401" fill="none">
  <g clip-path="url(#clip0_3322_14005)">
    <path d="M93.7691 401C93.7691 401 29.4634 215.744 73.3911 174.959C102.755 147.697 133.875 207.794 171.03 176.001C204.105 147.697 157.994 76.3941 213.178 57.7403C271.183 38.1351 318.703 196.912 367.374 174.959C426.449 148.318 481.129 204.136 430.362 401H93.7691Z" fill="#F6FEF7"></path>
    <path d="M47.8758 400.692C47.852 400.618 47.2255 398.837 46.1914 395.516L48.7647 394.705C49.7922 397.983 50.4166 399.786 50.4231 399.803L47.8758 400.692Z" fill="white"></path>
    <path d="M43.1026 385.144C42.1401 381.76 41.1841 378.245 40.2627 374.705L42.8642 374.023C43.7833 377.546 44.7329 381.039 45.6824 384.405L43.1026 385.144ZM472.678 380.919L469.996 380.628C470.384 377.048 470.753 373.443 471.095 369.915L473.779 370.176C473.436 373.717 473.057 377.324 472.678 380.921V380.919ZM37.6439 364.212C36.8136 360.736 36.0029 357.18 35.2354 353.668L37.8716 353.09C38.6325 356.588 39.4389 360.117 40.2671 363.582L37.6439 364.212ZM474.759 359.422L472.071 359.192C472.376 355.612 472.662 352 472.923 348.457L475.611 348.655C475.351 352.209 475.064 355.832 474.759 359.422ZM33.0372 343.079C32.3391 339.55 31.6693 335.975 31.0471 332.449L33.7027 331.978C34.3227 335.486 34.9883 339.044 35.682 342.554L33.0372 343.079ZM476.333 337.877L473.64 337.712C473.857 334.111 474.054 330.494 474.223 326.963L476.916 327.091C476.742 330.636 476.552 334.263 476.333 337.877ZM29.2716 321.78C28.7145 318.213 28.1877 314.612 27.7172 311.076L30.3902 310.715C30.8628 314.234 31.3831 317.816 31.9359 321.359L29.2716 321.78ZM477.358 316.289L474.663 316.196C474.785 312.601 474.88 308.98 474.954 305.433L477.649 305.487C477.579 309.056 477.482 312.69 477.358 316.289ZM26.3927 300.342C25.9894 296.745 25.6252 293.124 25.3087 289.577L27.9947 289.338C28.3091 292.863 28.6711 296.464 29.0787 300.04L26.3927 300.342ZM477.785 294.694L475.088 294.681C475.106 291.095 475.088 287.487 475.058 283.916L477.755 283.888C477.794 287.472 477.802 291.093 477.785 294.692V294.694ZM24.4828 278.792C24.2486 275.176 24.06 271.54 23.9191 267.984L26.6138 267.878C26.7525 271.41 26.9411 275.024 27.1753 278.617L24.4828 278.792ZM474.863 273.156C474.765 269.555 474.646 265.936 474.479 262.404L477.174 262.283C477.332 265.832 477.462 269.466 477.56 273.084L474.863 273.156ZM23.6286 257.165C23.5831 253.559 23.5874 249.934 23.6438 246.342L26.3406 246.385C26.2843 249.952 26.2799 253.553 26.3255 257.13L23.6286 257.165ZM473.896 251.659C473.668 248.06 473.406 244.452 473.116 240.929L475.802 240.712C476.094 244.252 476.359 247.879 476.586 251.494L473.896 251.659ZM26.6637 235.651L23.9712 235.525C24.1381 231.897 24.3635 228.263 24.6432 224.719L27.3314 224.936C27.0625 228.446 26.8392 232.052 26.6723 235.651H26.6637ZM472.11 230.221C471.737 226.626 471.323 223.033 470.878 219.538L473.553 219.197C474 222.712 474.421 226.326 474.791 229.94L472.11 230.221ZM174.927 215.794C171.025 215.522 168.479 213.55 164.894 210.446L166.719 208.456C169.785 211.08 171.885 212.85 175.039 213.092L175.117 215.791L174.927 215.794ZM28.3784 214.243L25.6989 213.939C26.1087 210.324 26.5878 206.712 27.1211 203.198L29.7876 203.604C29.2478 207.084 28.773 210.663 28.3676 214.243H28.3784ZM469.415 208.891C468.873 205.313 468.283 201.747 467.661 198.289L470.317 197.811C470.941 201.286 471.535 204.883 472.081 208.485L469.415 208.891ZM183.277 207.972L180.778 206.96C181.81 204.399 182.729 200.982 183.509 196.805L186.161 197.305C185.324 201.716 184.381 205.207 183.267 207.972H183.277ZM157.545 202.266C155.578 199.759 153.486 196.879 151.149 193.462L153.374 191.942C155.678 195.311 157.735 198.143 159.661 200.604L157.545 202.266ZM31.5912 193.028L28.9421 192.515C29.6315 188.942 30.3967 185.376 31.2184 181.916L33.8415 182.541C33.0307 185.964 32.2741 189.492 31.5934 193.028H31.5912ZM465.6 187.743C464.854 184.194 464.056 180.671 463.215 177.272L465.834 176.62C466.67 180.048 467.477 183.601 468.218 187.179L465.6 187.743ZM187.724 186.503L185.044 186.195C185.413 182.965 185.744 179.461 186.059 175.469L188.747 175.686C188.433 179.7 188.099 183.241 187.726 186.503H187.724ZM145.177 184.418C143.176 181.297 141.132 178.045 139.4 175.278L141.682 173.842C143.417 176.603 145.45 179.848 147.447 182.965L145.177 184.418ZM328.1 183.084C326.04 183.084 324.033 182.359 322.13 180.927L323.749 178.766C326.567 180.871 329.238 180.858 332.245 179.109L333.602 181.444C331.742 182.533 329.888 183.084 328.102 183.084H328.1ZM341.729 173.725L339.614 172.052C341.781 169.239 343.796 166.312 345.651 163.284L347.938 164.715C346.032 167.828 343.96 170.835 341.732 173.725H341.729ZM36.5578 172.17L33.9564 171.425C34.9601 167.923 36.0484 164.441 37.1973 161.07L39.7489 161.939C38.6151 165.271 37.5464 168.712 36.5578 172.17ZM315.182 172.063C313.423 168.861 311.856 165.557 310.488 162.169L312.979 161.135C314.305 164.425 315.825 167.632 317.532 170.74L315.182 172.063ZM460.494 166.887C459.499 163.381 458.443 159.936 457.357 156.633L459.917 155.786C461.017 159.12 462.085 162.606 463.087 166.149L460.494 166.887ZM133.67 166.127C131.43 162.567 129.592 159.676 127.882 157.03L130.145 155.555C131.86 158.21 133.707 161.109 135.953 164.678L133.67 166.127ZM189.482 164.861L186.789 164.702C186.98 161.481 187.167 157.953 187.364 153.913L190.056 154.044C189.859 158.092 189.673 161.637 189.482 164.861ZM353.464 155.373L351.121 154.035C352.84 151.009 354.568 147.892 356.38 144.619L358.739 145.922C356.922 149.211 355.192 152.332 353.464 155.373ZM306.638 151.995C305.554 148.887 304.44 145.518 303.234 141.695L305.806 140.883C307.002 144.678 308.108 148.02 309.183 151.105L306.638 151.995ZM43.4582 151.898L40.9564 150.892C42.2962 147.545 43.7573 144.159 45.2727 140.929L47.7202 142.089C46.2309 145.258 44.7914 148.605 43.4712 151.898H43.4582ZM121.922 148.06C119.735 144.849 117.701 141.978 115.709 139.297L117.877 137.686C119.891 140.401 121.944 143.296 124.164 146.535L121.922 148.06ZM453.75 146.539C452.436 143.12 451.051 139.806 449.631 136.665L452.087 135.548C453.527 138.728 454.934 142.099 456.267 145.568L453.75 146.539ZM190.551 143.233L187.858 143.116C188.014 139.53 188.17 135.92 188.328 132.31L191.023 132.429C190.863 136.039 190.709 139.647 190.551 143.233ZM363.998 136.513L361.654 135.177C363.662 131.636 365.448 128.574 367.115 125.82L369.422 127.218C367.768 129.953 365.992 132.992 363.998 136.513ZM52.6369 132.618L50.3043 131.265C52.1158 128.093 54.1364 125.045 56.3527 122.142L58.4837 123.795C56.3423 126.604 54.3891 129.551 52.6369 132.618ZM300.078 131.339C299.189 128.344 298.224 125.04 297.043 120.956L299.644 120.205C300.824 124.288 301.786 127.59 302.679 130.568L300.078 131.339ZM109.101 130.881C106.628 127.944 104.198 125.311 101.88 123.061L103.758 121.124C106.142 123.441 108.631 126.141 111.161 129.145L109.101 130.881ZM444.905 127.101C443.145 123.843 441.304 120.778 439.433 117.965L441.677 116.467C443.593 119.347 445.477 122.492 447.274 125.807L444.905 127.101ZM191.513 121.632L188.821 121.504C189.007 117.572 189.187 114.043 189.369 110.711L192.062 110.861C191.884 114.186 191.7 117.709 191.513 121.632ZM375.188 118.178L372.96 116.658C375.204 113.354 377.324 110.485 379.444 107.887L381.532 109.599C379.461 112.133 377.387 114.938 375.188 118.178ZM93.7832 116.326C90.6224 114.171 87.5202 112.663 84.5632 111.84L85.2829 109.234C88.5348 110.137 91.895 111.769 95.3007 114.088L93.7832 116.326ZM65.6962 116.267L64.0139 114.158C67.2354 111.577 70.5978 109.84 74.0078 108.99L74.6582 111.612C71.6275 112.366 68.612 113.932 65.6962 116.267ZM294.056 110.57C293.167 107.476 292.105 103.836 291.055 100.196L293.644 99.4376C294.706 103.074 295.757 106.727 296.646 109.822L294.056 110.57ZM433.071 109.483C430.798 106.805 428.3 104.327 425.604 102.077L427.317 99.9893C430.134 102.339 432.745 104.926 435.121 107.722L433.071 109.483ZM388.766 101.905L386.969 99.8916C390.025 97.1526 393.108 95.0435 396.134 93.623L397.279 96.0687C394.491 97.3763 391.627 99.3399 388.766 101.905ZM192.71 100.063L190.019 99.8851C190.267 96.1252 190.533 92.5 190.809 89.0812L193.497 89.2984C193.221 92.6933 192.968 96.3164 192.71 100.061V100.063ZM416.868 96.5053C413.577 95.0066 410.343 94.1638 407.03 93.9901L407.154 91.2924C410.811 91.4792 414.383 92.4066 417.993 94.0465L416.868 96.5053ZM287.994 89.8479C286.882 86.1554 285.842 82.7865 284.814 79.5479L287.385 78.7312C288.415 81.9893 289.46 85.3626 290.576 89.0682L287.994 89.8479ZM194.47 78.5531L191.786 78.2816C192.166 74.537 192.578 70.9118 193.011 67.506L195.684 67.847C195.253 71.2332 194.843 74.8345 194.468 78.5553L194.47 78.5531ZM281.462 69.3023C280.257 65.7487 279.05 62.3342 277.875 59.1521L280.402 58.2138C281.588 61.4176 282.802 64.856 284.016 68.4334L281.462 69.3023ZM197.221 57.1951L194.559 56.7607C195.17 53.0095 195.838 49.4126 196.545 46.0719L199.181 46.6323C198.483 49.9317 197.822 53.4852 197.219 57.1973L197.221 57.1951ZM273.964 49.1345C272.533 45.6592 271.076 42.3576 269.628 39.3124L272.065 38.1569C273.522 41.2412 274.996 44.5884 276.446 48.1028L273.964 49.1345ZM201.717 36.2237L199.116 35.4895C200.174 31.7405 201.336 28.2522 202.569 25.1222L205.077 26.1149C203.887 29.1623 202.756 32.5638 201.722 36.2259L201.717 36.2237ZM264.753 29.7922C263.021 26.697 261.13 23.694 259.088 20.7955L261.284 19.2294C263.385 22.2072 265.329 25.2929 267.109 28.4737L264.753 29.7922ZM209.671 16.6186L207.358 15.2284C209.441 11.7531 211.752 8.82949 214.232 6.55532L216.053 8.54712C213.766 10.654 211.611 13.3691 209.671 16.6272V16.6186ZM252.35 12.6849C249.712 10.0306 246.976 7.87812 244.218 6.29033L245.56 3.94883C248.749 5.83016 251.675 8.12648 254.262 10.7778L252.35 12.6849ZM224.619 3.58392L223.862 0.990461C227.459 -0.0499629 231.432 -0.234586 235.055 0.267163L234.68 2.94316C231.318 2.466 227.894 2.68407 224.619 3.58392Z" fill="white"></path>
    <path d="M470.796 397.09L468.121 396.756C468.338 394.985 468.555 393.183 468.771 391.399L471.449 391.719C471.236 393.515 471.017 395.322 470.796 397.09Z" fill="white"></path>
    <path d="M2.64264 388.246L0 387.709C0.739245 384.049 1.56954 380.474 2.46704 377.081L5.06849 377.774C4.1905 381.115 3.37104 384.638 2.64264 388.246ZM512.381 380.018C511.479 376.377 510.491 372.904 509.448 369.698L512.01 368.86C513.075 372.118 514.081 375.663 514.998 379.366L512.381 380.018ZM441.19 370.437C437.41 370.059 433.952 368.438 430.913 365.621L432.744 363.638C435.381 366.082 438.229 367.426 441.457 367.748L441.19 370.437ZM72.6519 370.193C70.7447 370.196 68.8451 369.951 67.0003 369.466L67.6897 366.859C70.9805 367.728 74.3125 367.672 77.7161 366.911L78.3058 369.548C76.4504 369.97 74.5544 370.186 72.6519 370.193ZM452.338 368.482L451.319 365.98C454.18 364.768 457.625 363.021 460.185 360.747L461.963 362.78C459.199 365.239 455.453 367.17 452.338 368.482ZM8.19022 367.513L5.64297 366.623C6.83561 363.161 8.22756 359.772 9.8118 356.472L12.2355 357.658C10.6973 360.862 9.34658 364.152 8.19022 367.513ZM57.0844 364.105C54.0364 361.566 51.4068 358.505 49.4557 356.123L51.539 354.409C53.4142 356.698 55.9355 359.635 58.8079 362.029L57.0844 364.105ZM87.9701 363.532L85.915 361.794C87.8314 359.526 89.6004 356.618 91.3238 352.902L93.7692 354.04C91.946 357.971 90.047 361.077 87.9701 363.532ZM505.65 359.731C504.241 356.501 502.534 353.41 500.553 350.497L502.764 348.951C504.842 352.003 506.631 355.241 508.11 358.625L505.65 359.731ZM424.318 356.594C422.636 353.328 421.195 349.943 420.008 346.466L422.551 345.569C423.694 348.924 425.082 352.191 426.703 355.343L424.318 356.594ZM469.113 354.3L466.899 352.756C469.013 349.715 471.096 346.49 473.522 343.972L475.473 345.844C473.206 348.179 471.14 351.377 469.113 354.3ZM336.595 350.48C334.52 350.48 332.602 349.676 330.891 348.09L332.723 346.107C335.314 348.497 337.971 348.116 340.974 346.296L342.39 348.596C340.367 349.841 338.418 350.473 336.595 350.473V350.48ZM17.7007 348.694L15.5848 347.02C18.2752 343.612 21.1931 341.172 24.2563 339.767L25.3771 342.224C22.7106 343.44 20.1265 345.612 17.705 348.688L17.7007 348.694ZM178.316 348.03C175.784 346.837 173.033 344.365 169.907 340.473L172.008 338.779C174.826 342.295 177.341 344.585 179.463 345.584L178.316 348.03ZM42.6768 347.76C39.6417 344.272 37.2332 342.365 34.8724 341.578L35.7222 339.015C39.3642 340.227 42.4426 343.377 44.7059 345.983L42.6768 347.76ZM188.776 343.85L186.457 342.471C187.77 340.254 188.987 337.069 190.175 332.74L192.776 333.457C191.527 338.01 190.218 341.413 188.781 343.844L188.776 343.85ZM97.7256 343.811L95.1675 342.96C96.1539 339.98 97.1598 336.611 98.2394 332.66L100.841 333.375C99.7504 337.358 98.7358 340.779 97.7321 343.805L97.7256 343.811ZM493.382 343.275C490.553 341.426 487.095 340.862 483.956 341.274L483.618 338.594C487.36 338.101 491.453 338.811 494.804 340.983L493.382 343.275ZM350.549 340.94L348.473 339.22C350.72 336.458 352.819 333.578 354.759 330.592L357.01 332.08C355.018 335.145 352.864 338.1 350.556 340.933L350.549 340.94ZM325.298 338.205C324.145 334.754 323.492 331.567 322.658 327.549L325.302 327.021C326.113 330.918 326.74 334 327.85 337.332L325.298 338.205ZM416.782 336.033C415.768 332.356 414.831 328.648 414.062 325.509L416.68 324.858C417.45 327.981 418.374 331.663 419.382 335.31L416.782 336.033ZM163.622 331.515C161.888 328.77 160.013 325.627 158.068 322.175L160.418 320.848C162.339 324.263 164.184 327.364 165.897 330.071L163.622 331.515ZM103.585 322.87L100.971 322.219C101.838 318.756 102.749 315.157 103.65 311.725L106.252 312.414C105.359 315.82 104.457 319.419 103.585 322.87ZM362.742 322.818L360.418 321.446C362.022 318.72 363.769 315.655 365.757 312.071L368.114 313.385C366.115 316.986 364.357 320.073 362.742 322.818ZM195.234 322.805L192.59 322.273C193.179 319.33 193.786 316.054 194.56 311.654L197.216 312.121C196.438 316.545 195.828 319.84 195.234 322.805ZM320.815 316.832C320.269 313.27 319.763 309.634 319.274 306.113L321.944 305.739C322.432 309.251 322.937 312.879 323.479 316.424L320.815 316.832ZM411.491 314.986C410.428 310.768 409.539 307.462 408.687 304.586L411.274 303.819C412.141 306.732 413.034 310.07 414.105 314.328L411.491 314.986ZM152.909 312.638C151.341 309.642 149.689 306.395 147.996 302.987L150.411 301.784C152.096 305.174 153.739 308.404 155.298 311.384L152.909 312.638ZM373.319 303.884L370.953 302.581C372.772 299.243 374.543 296.006 376.2 293.085L378.545 294.421C376.898 297.331 375.133 300.559 373.319 303.884ZM109.194 302.051L106.62 301.243C107.904 297.14 109.152 293.771 110.438 290.945L112.892 292.066C111.654 294.785 110.444 298.057 109.194 302.051ZM199.061 301.441L196.403 300.982C196.945 297.846 197.591 294.125 198.291 290.3L200.942 290.787C200.246 294.599 199.6 298.313 199.061 301.441ZM317.734 295.437C317.084 291.238 316.486 287.883 315.846 284.87L318.484 284.31C319.135 287.37 319.742 290.776 320.399 295.024L317.734 295.437ZM405.184 294.516C403.563 290.641 401.88 287.704 400.049 285.539L402.104 283.79C404.12 286.18 405.941 289.338 407.671 293.471L405.184 294.516ZM142.594 293.838C140.283 290.363 138.133 287.691 136.015 285.687L137.868 283.732C140.136 285.88 142.421 288.699 144.838 292.351L142.594 293.838ZM384.13 285.313L381.923 283.762C383.263 281.859 384.253 280.671 385.353 279.711C387.646 278.803 389.855 278.345 392.001 278.408L391.912 281.108C388.405 281.084 386.243 281.727 384.13 285.309V285.313ZM118.483 283.575L116.671 281.575C119.634 278.782 124.124 277.856 127.785 278.345L127.41 281.021C124.373 280.641 120.917 281.319 118.483 283.564V283.575ZM202.984 280.189L200.342 279.648C201.116 275.856 201.877 272.383 202.668 269.029L205.291 269.65C204.506 272.965 203.752 276.412 202.984 280.178V280.189ZM313.273 274.442C312.306 270.693 311.38 267.293 310.455 264.051L313.043 263.301C313.988 266.559 314.92 269.991 315.892 273.766L313.273 274.442ZM207.971 259.237L205.369 258.507C206.395 254.856 207.478 251.353 208.595 248.097L211.147 248.966C210.052 252.161 208.983 255.614 207.971 259.216V259.237ZM307.259 253.794C306.063 250.227 304.823 246.843 303.574 243.726L306.073 242.714C307.346 245.879 308.608 249.317 309.819 252.936L307.259 253.794ZM214.988 238.97L212.512 237.901C213.947 234.544 215.551 231.262 217.318 228.068L219.671 229.386C217.949 232.492 216.386 235.683 214.988 238.948V238.97ZM299.193 233.974C297.607 230.799 295.84 227.718 293.901 224.747L296.151 223.259C298.149 226.318 299.969 229.49 301.601 232.76L299.193 233.974ZM225.435 220.492L223.289 218.858C225.499 215.917 227.982 213.192 230.703 210.717L232.507 212.724C229.913 215.08 227.546 217.673 225.435 220.47V220.492ZM287.436 216.389C285.075 213.799 282.45 211.464 279.604 209.421L281.162 207.218C284.164 209.369 286.931 211.83 289.42 214.56L287.436 216.389ZM240.974 206.684L239.687 204.312C242.93 202.547 246.382 201.2 249.962 200.302L250.613 202.924C247.257 203.759 244.019 205.015 240.976 206.662L240.974 206.684ZM270.457 204.438C267.69 203.359 264.826 202.547 261.905 202.014V201.925C261.5 201.899 261.097 201.879 260.698 201.862L260.81 199.162C262.016 199.208 263.381 199.325 264.602 199.431V199.818C266.934 200.345 269.221 201.049 271.446 201.925L270.457 204.438Z" fill="#A7F1AF"></path>
    <path d="M471.931 377.105C467.146 376.377 462.047 376.966 459.062 378.239C396.035 417.26 412.069 345.319 375.853 351.67C360.406 352.519 343.907 381.788 326.724 380.109C322.148 378.628 320.26 375.495 317.981 370.1C309.743 336.116 289.526 319.419 262.859 317.512V317.41C259.869 317.29 257.005 317.29 254.018 317.41V317.512C227.353 319.419 207.123 336.116 198.896 370.1C196.918 375.196 194.527 378.137 191.824 379.481C174.427 385.982 152.551 343.846 130.907 351.703C113.687 356.047 114.903 389.177 89.9642 389.177C65.8336 390.046 64.6283 375.33 46.674 376.91C29.461 376.582 19.0271 402.431 19.9159 402.974H496.961C496.961 402.974 491.153 379.913 471.931 377.105Z" fill="#A7F1AF"></path>
    <path d="M339.24 216.591L298.84 250.79C298.84 250.79 307.269 267.865 321.438 284.992L356.341 255.451C356.341 255.451 353.993 234.337 339.24 216.591Z" fill="#FAA98D"></path>
    <path d="M177.635 216.591L218.036 250.79C218.036 250.79 209.607 267.865 195.438 284.992L160.535 255.451C160.535 255.451 162.883 234.337 177.635 216.591Z" fill="#FAA98D"></path>
    <path d="M339.243 261.331L258.438 282.246V157.336L339.243 136.419V261.331Z" fill="#004A99"></path>
    <path d="M258.436 282.246L177.633 261.331V136.419L258.436 157.336V282.246Z" fill="#004A99"></path>
    <path d="M329.223 254.211L258.438 272.535V150.56L329.223 132.236V254.211Z" fill="white"></path>
    <path d="M319.243 196.136L285.246 204.935V154.078L319.243 145.279V196.136Z" fill="#FFEBDC"></path>
    <path d="M276.709 146.982V207.149L274.457 205.435L270.576 202.472L266.674 207.468L264.422 210.357V149.28C264.422 148.903 264.547 148.537 264.778 148.239C265.009 147.941 265.332 147.728 265.697 147.634L266.674 147.38L274.453 145.368L274.581 145.334C274.832 145.268 275.095 145.261 275.35 145.313C275.604 145.365 275.844 145.475 276.049 145.634C276.255 145.793 276.421 145.997 276.536 146.231C276.65 146.465 276.71 146.722 276.709 146.982Z" fill="#004A99"></path>
    <path d="M274.458 145.368V205.433L270.569 202.472L266.68 207.462V147.38L274.458 145.368Z" fill="#004A99"></path>
    <path d="M329.223 254.211L335.973 259.3V137.267L329.223 132.236V254.211Z" fill="#FFEBDC"></path>
    <path d="M258.438 279.37L335.974 259.3L329.223 254.211L258.438 272.535V279.37Z" fill="#FFEBDC"></path>
    <path d="M258.438 272.535L187.652 254.211V132.236L258.438 150.56V272.535Z" fill="white"></path>
    <path d="M187.651 254.211L180.902 259.3V137.267L187.651 132.236V254.211Z" fill="#FFEBDC"></path>
    <path d="M250.232 159.645C250.144 159.645 250.057 159.634 249.972 159.613L215.997 150.818C215.729 150.749 215.5 150.575 215.359 150.337C215.219 150.098 215.179 149.813 215.248 149.544C215.317 149.276 215.49 149.046 215.729 148.905C215.967 148.764 216.252 148.724 216.52 148.794L250.492 157.588C250.738 157.652 250.953 157.803 251.096 158.013C251.239 158.224 251.3 158.479 251.268 158.732C251.236 158.985 251.113 159.217 250.923 159.385C250.732 159.553 250.486 159.646 250.232 159.645Z" fill="#FFEBDC"></path>
    <path d="M208.576 148.865C208.488 148.865 208.4 148.854 208.314 148.831L194.294 145.203C194.033 145.128 193.811 144.953 193.676 144.716C193.542 144.48 193.504 144.199 193.572 143.935C193.64 143.672 193.808 143.445 194.041 143.303C194.273 143.161 194.552 143.116 194.817 143.177L208.837 146.806C209.081 146.871 209.294 147.023 209.436 147.233C209.578 147.443 209.638 147.698 209.606 147.95C209.574 148.202 209.453 148.433 209.263 148.602C209.074 148.77 208.83 148.864 208.576 148.865Z" fill="#FFEBDC"></path>
    <path d="M250.232 169.822C250.144 169.822 250.056 169.81 249.972 169.787L233.606 165.547C233.339 165.478 233.109 165.304 232.969 165.065C232.828 164.827 232.788 164.541 232.857 164.273C232.927 164.005 233.1 163.775 233.338 163.634C233.576 163.493 233.861 163.453 234.129 163.523L250.492 167.758C250.737 167.823 250.95 167.975 251.091 168.185C251.233 168.395 251.294 168.65 251.262 168.902C251.23 169.154 251.108 169.385 250.919 169.553C250.729 169.722 250.485 169.816 250.232 169.817V169.822Z" fill="#FFEBDC"></path>
    <path d="M228.897 164.298C228.809 164.298 228.72 164.287 228.635 164.263L194.302 155.377C194.041 155.302 193.819 155.127 193.684 154.89C193.549 154.654 193.512 154.373 193.58 154.109C193.648 153.846 193.816 153.619 194.049 153.477C194.281 153.335 194.56 153.29 194.825 153.351L229.157 162.239C229.402 162.304 229.615 162.455 229.757 162.666C229.898 162.876 229.959 163.131 229.927 163.383C229.895 163.634 229.773 163.866 229.584 164.034C229.394 164.203 229.15 164.296 228.897 164.298Z" fill="#FFEBDC"></path>
    <path d="M250.233 179.996C250.145 179.996 250.057 179.984 249.972 179.961L236.341 176.433C236.208 176.399 236.084 176.339 235.974 176.256C235.865 176.174 235.773 176.07 235.703 175.952C235.633 175.834 235.588 175.703 235.569 175.567C235.55 175.431 235.558 175.292 235.592 175.159C235.626 175.027 235.686 174.902 235.769 174.792C235.851 174.682 235.954 174.59 236.072 174.52C236.19 174.451 236.321 174.405 236.457 174.386C236.593 174.367 236.731 174.375 236.863 174.409L250.493 177.928C250.738 177.993 250.951 178.144 251.092 178.355C251.234 178.565 251.294 178.82 251.262 179.071C251.231 179.323 251.109 179.555 250.919 179.723C250.73 179.892 250.486 179.985 250.233 179.987V179.996Z" fill="#FFEBDC"></path>
    <path d="M230.629 174.919C230.54 174.919 230.452 174.908 230.366 174.887L209.802 169.563C209.534 169.494 209.304 169.32 209.164 169.082C209.023 168.843 208.983 168.558 209.053 168.289C209.122 168.021 209.295 167.791 209.533 167.65C209.772 167.509 210.056 167.469 210.324 167.539L230.889 172.863C231.135 172.926 231.35 173.077 231.493 173.287C231.635 173.498 231.697 173.753 231.665 174.006C231.633 174.259 231.51 174.491 231.319 174.659C231.128 174.827 230.883 174.92 230.629 174.919Z" fill="#FFEBDC"></path>
    <path d="M204.812 168.238C204.723 168.238 204.635 168.227 204.549 168.203L194.302 165.547C194.169 165.513 194.044 165.452 193.935 165.37C193.826 165.287 193.733 165.184 193.664 165.065C193.594 164.947 193.549 164.816 193.53 164.68C193.511 164.544 193.518 164.406 193.553 164.273C193.587 164.14 193.647 164.015 193.73 163.906C193.812 163.796 193.915 163.704 194.033 163.634C194.151 163.564 194.282 163.519 194.418 163.499C194.553 163.48 194.692 163.488 194.824 163.523L205.072 166.175C205.317 166.239 205.53 166.391 205.671 166.602C205.813 166.812 205.873 167.067 205.841 167.318C205.81 167.57 205.688 167.802 205.498 167.97C205.309 168.138 205.065 168.232 204.812 168.234V168.238Z" fill="#FFEBDC"></path>
    <path d="M250.233 190.17C250.146 190.169 250.058 190.159 249.973 190.137L227.427 184.298C227.166 184.223 226.944 184.048 226.809 183.811C226.674 183.575 226.637 183.295 226.705 183.031C226.773 182.767 226.941 182.54 227.174 182.398C227.406 182.256 227.685 182.211 227.95 182.272L250.496 188.11C250.74 188.175 250.953 188.327 251.095 188.537C251.237 188.748 251.297 189.002 251.265 189.254C251.234 189.506 251.112 189.737 250.922 189.906C250.733 190.074 250.489 190.168 250.235 190.17H250.233Z" fill="#FFEBDC"></path>
    <path d="M218.038 181.838C217.949 181.837 217.861 181.826 217.776 181.805L194.302 175.723C194.034 175.654 193.804 175.481 193.664 175.242C193.523 175.003 193.483 174.718 193.553 174.449C193.622 174.181 193.795 173.951 194.033 173.81C194.272 173.669 194.556 173.629 194.824 173.699L218.298 179.781C218.543 179.845 218.756 179.997 218.897 180.207C219.039 180.418 219.099 180.673 219.068 180.924C219.036 181.176 218.914 181.408 218.725 181.576C218.535 181.744 218.291 181.838 218.038 181.84V181.838Z" fill="#FFEBDC"></path>
    <path d="M250.233 200.344C250.145 200.343 250.058 200.333 249.973 200.311L194.302 185.899C194.034 185.83 193.804 185.657 193.664 185.418C193.523 185.179 193.483 184.894 193.553 184.625C193.622 184.357 193.795 184.127 194.033 183.986C194.272 183.846 194.556 183.806 194.824 183.875L250.493 198.284C250.738 198.349 250.951 198.501 251.092 198.711C251.234 198.922 251.295 199.176 251.263 199.428C251.231 199.68 251.109 199.911 250.92 200.08C250.73 200.248 250.486 200.342 250.233 200.344Z" fill="#FFEBDC"></path>
    <path d="M250.23 210.509C250.142 210.509 250.055 210.498 249.97 210.476L227.669 204.703C227.536 204.669 227.412 204.608 227.302 204.526C227.193 204.443 227.101 204.34 227.031 204.221C226.891 203.983 226.851 203.697 226.92 203.429C226.989 203.161 227.162 202.931 227.401 202.79C227.639 202.649 227.923 202.609 228.191 202.679L250.49 208.452C250.736 208.515 250.951 208.666 251.094 208.877C251.237 209.087 251.298 209.343 251.266 209.595C251.234 209.848 251.111 210.08 250.921 210.249C250.73 210.417 250.484 210.509 250.23 210.509Z" fill="#FFEBDC"></path>
    <path d="M220.954 202.939C220.865 202.939 220.777 202.928 220.691 202.904L194.302 196.073C194.034 196.004 193.804 195.831 193.664 195.592C193.523 195.353 193.483 195.068 193.553 194.799C193.622 194.531 193.795 194.301 194.033 194.16C194.272 194.02 194.556 193.979 194.824 194.049L221.214 200.88C221.459 200.945 221.672 201.097 221.813 201.307C221.955 201.517 222.015 201.772 221.983 202.024C221.952 202.276 221.83 202.507 221.64 202.675C221.451 202.844 221.207 202.938 220.954 202.939Z" fill="#FFEBDC"></path>
    <path d="M250.233 220.694C250.146 220.694 250.058 220.682 249.973 220.659L194.302 206.249C194.041 206.174 193.819 205.999 193.684 205.762C193.549 205.526 193.512 205.246 193.58 204.982C193.648 204.718 193.816 204.491 194.049 204.349C194.281 204.207 194.56 204.162 194.825 204.223L250.494 218.635C250.738 218.699 250.951 218.851 251.093 219.062C251.235 219.272 251.295 219.527 251.263 219.778C251.231 220.03 251.11 220.262 250.92 220.43C250.731 220.598 250.487 220.692 250.233 220.694Z" fill="#FFEBDC"></path>
    <path d="M250.231 230.868C250.143 230.868 250.056 230.856 249.971 230.833L220.247 223.14C219.979 223.07 219.75 222.897 219.609 222.658C219.469 222.419 219.429 222.134 219.498 221.866C219.567 221.597 219.74 221.367 219.979 221.227C220.217 221.086 220.502 221.046 220.77 221.115L250.491 228.809C250.736 228.873 250.949 229.025 251.091 229.236C251.232 229.446 251.293 229.701 251.261 229.952C251.229 230.204 251.107 230.436 250.918 230.604C250.728 230.772 250.484 230.866 250.231 230.868Z" fill="#FFEBDC"></path>
    <path d="M212.358 221.063C212.271 221.063 212.183 221.052 212.098 221.03L194.302 216.423C194.041 216.348 193.819 216.173 193.684 215.936C193.549 215.7 193.512 215.42 193.58 215.156C193.648 214.892 193.816 214.665 194.049 214.523C194.281 214.381 194.56 214.336 194.825 214.397L212.621 219.004C212.866 219.069 213.079 219.221 213.221 219.431C213.362 219.642 213.422 219.897 213.39 220.149C213.358 220.401 213.236 220.632 213.046 220.8C212.856 220.969 212.612 221.062 212.358 221.063Z" fill="#FFEBDC"></path>
    <path d="M250.232 241.042C250.144 241.042 250.057 241.031 249.972 241.009L234.459 236.993C234.197 236.918 233.975 236.743 233.841 236.506C233.706 236.269 233.668 235.989 233.736 235.725C233.804 235.461 233.972 235.234 234.205 235.093C234.437 234.951 234.716 234.906 234.981 234.967L250.492 238.983C250.737 239.047 250.95 239.199 251.092 239.41C251.233 239.62 251.294 239.875 251.262 240.126C251.23 240.378 251.108 240.61 250.919 240.778C250.729 240.946 250.485 241.04 250.232 241.042Z" fill="#FFEBDC"></path>
    <path d="M228.361 235.379C228.273 235.379 228.185 235.368 228.099 235.347L195.798 226.986C195.53 226.917 195.301 226.744 195.16 226.505C195.02 226.266 194.98 225.981 195.049 225.712C195.118 225.444 195.291 225.214 195.529 225.073C195.768 224.933 196.052 224.893 196.32 224.962L228.622 233.32C228.866 233.385 229.079 233.537 229.221 233.747C229.363 233.957 229.423 234.212 229.391 234.464C229.36 234.715 229.238 234.947 229.048 235.115C228.859 235.284 228.615 235.378 228.361 235.379Z" fill="#FFEBDC"></path>
    <path d="M250.233 251.216C250.145 251.216 250.058 251.205 249.973 251.183L236.138 247.601C236.005 247.567 235.88 247.507 235.771 247.424C235.662 247.342 235.569 247.238 235.5 247.12C235.359 246.881 235.319 246.596 235.389 246.328C235.458 246.059 235.631 245.829 235.869 245.688C236.108 245.548 236.392 245.508 236.66 245.577L250.493 249.157C250.738 249.221 250.951 249.373 251.093 249.584C251.234 249.794 251.295 250.049 251.263 250.3C251.231 250.552 251.109 250.784 250.92 250.952C250.73 251.12 250.486 251.214 250.233 251.216Z" fill="#FFEBDC"></path>
    <path d="M231.755 246.433C231.667 246.433 231.579 246.422 231.493 246.4L213.107 241.641C212.846 241.566 212.624 241.391 212.489 241.154C212.354 240.918 212.317 240.637 212.385 240.373C212.453 240.11 212.621 239.883 212.853 239.741C213.086 239.599 213.364 239.554 213.629 239.615L232.015 244.374C232.26 244.439 232.473 244.59 232.615 244.801C232.756 245.011 232.817 245.266 232.785 245.517C232.753 245.769 232.631 246.001 232.442 246.169C232.252 246.338 232.008 246.431 231.755 246.433Z" fill="#FFEBDC"></path>
    <path d="M208.061 240.299C207.973 240.299 207.885 240.288 207.799 240.266L194.302 236.772C194.034 236.702 193.804 236.529 193.664 236.29C193.523 236.051 193.483 235.766 193.553 235.498C193.622 235.229 193.795 234.999 194.033 234.859C194.272 234.718 194.556 234.678 194.824 234.747L208.321 238.24C208.566 238.305 208.779 238.456 208.921 238.667C209.062 238.877 209.123 239.132 209.091 239.384C209.059 239.635 208.937 239.867 208.748 240.035C208.559 240.204 208.314 240.297 208.061 240.299Z" fill="#FFEBDC"></path>
    <path d="M250.233 261.39C250.145 261.39 250.058 261.379 249.973 261.357L194.302 246.946C194.034 246.876 193.804 246.703 193.664 246.464C193.523 246.225 193.483 245.94 193.553 245.672C193.622 245.403 193.795 245.173 194.033 245.033C194.272 244.892 194.556 244.852 194.824 244.921L250.493 259.331C250.738 259.395 250.951 259.547 251.092 259.758C251.234 259.968 251.295 260.223 251.263 260.474C251.231 260.726 251.109 260.958 250.92 261.126C250.73 261.294 250.486 261.388 250.233 261.39Z" fill="#FFEBDC"></path>
    <path d="M265.995 220.694C265.742 220.692 265.498 220.598 265.308 220.43C265.119 220.262 264.997 220.03 264.965 219.778C264.934 219.527 264.994 219.272 265.136 219.062C265.277 218.851 265.49 218.699 265.735 218.635L278.343 215.377C278.478 215.338 278.618 215.326 278.757 215.343C278.896 215.36 279.03 215.404 279.151 215.473C279.272 215.543 279.378 215.636 279.463 215.747C279.548 215.858 279.61 215.985 279.645 216.121C279.68 216.256 279.687 216.397 279.667 216.536C279.646 216.674 279.598 216.807 279.526 216.927C279.453 217.046 279.357 217.15 279.244 217.232C279.131 217.314 279.002 217.372 278.866 217.403L266.257 220.661C266.172 220.684 266.084 220.695 265.995 220.694Z" fill="#FFEBDC"></path>
    <path d="M285.241 215.722C284.988 215.72 284.744 215.627 284.555 215.458C284.365 215.29 284.243 215.058 284.211 214.806C284.18 214.555 284.24 214.3 284.382 214.09C284.523 213.879 284.736 213.728 284.981 213.663L321.401 204.234C321.667 204.173 321.945 204.218 322.177 204.36C322.41 204.502 322.578 204.729 322.646 204.993C322.714 205.256 322.677 205.537 322.542 205.773C322.407 206.01 322.185 206.185 321.924 206.26L285.504 215.687C285.418 215.71 285.33 215.722 285.241 215.722Z" fill="#FFEBDC"></path>
    <path d="M265.995 230.868C265.742 230.866 265.498 230.772 265.308 230.604C265.119 230.436 264.997 230.204 264.965 229.952C264.934 229.701 264.994 229.446 265.136 229.236C265.277 229.025 265.49 228.873 265.735 228.809L296.851 220.755C296.983 220.72 297.121 220.712 297.257 220.731C297.393 220.751 297.523 220.796 297.641 220.866C297.759 220.936 297.863 221.028 297.945 221.138C298.028 221.247 298.088 221.372 298.122 221.505C298.156 221.638 298.164 221.776 298.145 221.912C298.126 222.048 298.08 222.179 298.011 222.297C297.941 222.416 297.849 222.519 297.74 222.602C297.63 222.684 297.506 222.745 297.373 222.779L266.257 230.833C266.172 230.856 266.084 230.868 265.995 230.868Z" fill="#FFEBDC"></path>
    <path d="M305.302 220.694C305.049 220.693 304.804 220.599 304.614 220.431C304.425 220.263 304.302 220.031 304.27 219.779C304.238 219.528 304.298 219.273 304.44 219.062C304.582 218.851 304.795 218.7 305.04 218.635L321.405 214.397C321.539 214.358 321.68 214.347 321.818 214.363C321.957 214.38 322.091 214.424 322.212 214.494C322.334 214.563 322.44 214.656 322.525 214.767C322.61 214.878 322.671 215.006 322.706 215.141C322.741 215.277 322.749 215.418 322.728 215.556C322.708 215.695 322.66 215.828 322.587 215.947C322.515 216.067 322.419 216.17 322.305 216.252C322.192 216.334 322.064 216.392 321.927 216.423L305.562 220.659C305.477 220.682 305.39 220.694 305.302 220.694Z" fill="#FFEBDC"></path>
    <path d="M265.995 241.042C265.742 241.04 265.498 240.946 265.308 240.778C265.119 240.61 264.997 240.378 264.965 240.126C264.934 239.875 264.994 239.62 265.136 239.41C265.277 239.199 265.49 239.047 265.735 238.983L320.118 224.905C320.251 224.871 320.389 224.863 320.525 224.882C320.66 224.901 320.791 224.947 320.909 225.017C321.027 225.087 321.13 225.179 321.213 225.288C321.295 225.398 321.355 225.523 321.39 225.656C321.424 225.789 321.432 225.927 321.413 226.063C321.394 226.199 321.348 226.33 321.279 226.448C321.209 226.567 321.117 226.67 321.007 226.753C320.898 226.835 320.773 226.895 320.641 226.93L266.257 241.009C266.172 241.031 266.084 241.042 265.995 241.042Z" fill="#FFEBDC"></path>
    <path d="M265.995 251.216C265.742 251.214 265.498 251.12 265.308 250.952C265.119 250.784 264.997 250.552 264.965 250.3C264.934 250.049 264.994 249.794 265.136 249.584C265.277 249.373 265.49 249.222 265.735 249.157L279.568 245.577C279.701 245.543 279.839 245.535 279.975 245.554C280.11 245.573 280.241 245.619 280.359 245.688C280.477 245.758 280.58 245.85 280.663 245.96C280.745 246.07 280.805 246.195 280.84 246.328C280.874 246.46 280.882 246.599 280.863 246.735C280.844 246.871 280.798 247.002 280.729 247.12C280.659 247.238 280.567 247.342 280.457 247.424C280.348 247.507 280.223 247.567 280.091 247.601L266.257 251.183C266.172 251.205 266.084 251.216 265.995 251.216Z" fill="#FFEBDC"></path>
    <path d="M284.472 246.433C284.219 246.431 283.975 246.338 283.785 246.169C283.596 246.001 283.474 245.769 283.442 245.517C283.41 245.266 283.471 245.011 283.612 244.801C283.754 244.59 283.967 244.439 284.212 244.374L302.597 239.615C302.863 239.554 303.141 239.599 303.373 239.741C303.606 239.883 303.774 240.11 303.842 240.373C303.91 240.637 303.873 240.918 303.738 241.154C303.603 241.391 303.381 241.566 303.12 241.641L284.734 246.4C284.648 246.422 284.56 246.433 284.472 246.433Z" fill="#FFEBDC"></path>
    <path d="M308.167 240.299C307.914 240.297 307.67 240.204 307.48 240.035C307.291 239.867 307.169 239.635 307.137 239.384C307.105 239.132 307.166 238.877 307.307 238.667C307.449 238.456 307.662 238.305 307.907 238.24L321.404 234.747C321.672 234.678 321.956 234.718 322.195 234.859C322.433 234.999 322.606 235.229 322.676 235.498C322.745 235.766 322.705 236.051 322.564 236.29C322.424 236.529 322.194 236.702 321.927 236.772L308.429 240.266C308.344 240.288 308.255 240.299 308.167 240.299Z" fill="#FFEBDC"></path>
    <path d="M265.995 261.39C265.742 261.388 265.498 261.294 265.308 261.126C265.119 260.958 264.997 260.726 264.965 260.474C264.934 260.223 264.994 259.968 265.136 259.758C265.277 259.547 265.49 259.396 265.735 259.331L291.279 252.719C291.544 252.658 291.823 252.703 292.055 252.845C292.288 252.987 292.456 253.214 292.524 253.478C292.592 253.742 292.554 254.022 292.42 254.258C292.285 254.495 292.063 254.67 291.802 254.745L266.257 261.357C266.172 261.379 266.084 261.39 265.995 261.39Z" fill="#FFEBDC"></path>
    <path d="M299.312 252.767C299.058 252.765 298.814 252.671 298.625 252.503C298.435 252.335 298.314 252.103 298.282 251.851C298.25 251.6 298.31 251.345 298.452 251.134C298.594 250.924 298.807 250.772 299.051 250.708L321.404 244.921C321.537 244.887 321.675 244.879 321.811 244.898C321.947 244.917 322.077 244.963 322.195 245.033C322.313 245.102 322.417 245.194 322.499 245.304C322.581 245.414 322.642 245.539 322.676 245.672C322.71 245.805 322.718 245.943 322.699 246.079C322.68 246.215 322.634 246.346 322.565 246.464C322.495 246.582 322.403 246.686 322.294 246.768C322.184 246.851 322.06 246.911 321.927 246.946L299.574 252.732C299.488 252.755 299.4 252.767 299.312 252.767Z" fill="#FFEBDC"></path>
    <path d="M258.436 279.37L180.902 259.3L187.651 254.211L258.436 272.535V279.37Z" fill="#FFEBDC"></path>
    <path d="M205.512 228.42C204.563 230.34 203.22 232.038 201.57 233.403C200.858 233.97 200.109 234.491 199.329 234.96C198.44 235.505 197.56 235.983 196.842 236.35C195.884 236.839 195.219 237.134 195.219 237.134C195.219 237.134 195.019 237.423 194.685 237.934C193.133 240.303 188.665 247.491 187.653 253.099C187.576 253.523 187.52 253.936 187.486 254.337C187.427 254.953 187.433 255.573 187.505 256.188C187.722 257.904 187.982 259.58 188.273 261.207C188.459 262.24 188.656 263.25 188.865 264.237C189.493 267.233 190.215 270.017 190.944 272.511V272.535C193.127 280.013 195.375 284.872 195.429 284.994C194.876 285.324 194.896 302.431 195.212 326.5C195.312 334.346 195.442 342.934 195.591 351.913C195.854 367.656 196.181 384.625 196.515 401.002H142.34C143.424 384.364 144.777 366.573 146.428 348.961C147.237 340.327 148.122 331.737 149.082 323.346C152.082 297.175 155.846 272.954 160.537 255.464C162.338 248.75 165.874 243.631 170.527 239.391C172.742 237.398 175.12 235.593 177.635 233.996C178.696 233.312 179.786 232.646 180.904 231.997C183.072 230.737 185.327 229.534 187.653 228.353C188.452 227.944 189.261 227.538 190.079 227.134C191.926 226.217 193.807 225.305 195.715 224.38H195.732C197.683 223.426 199.676 222.458 201.662 221.456C202.013 221.276 202.375 221.118 202.745 220.983L202.895 220.933C203.207 220.826 203.529 220.747 203.855 220.698L203.977 220.681C207.307 220.283 207.523 224.373 205.512 228.42Z" fill="#FAA98D"></path>
    <path d="M203.973 220.668C203.973 220.668 204.788 222.809 202.163 225.403C199.538 227.996 197.714 228.281 197.714 228.281C197.714 228.281 196.912 225.989 195.707 224.371C195.707 224.375 201.445 220.994 203.973 220.668Z" fill="#FFEBDC"></path>
    <path d="M207.275 269.003C207.275 269.003 197.287 269.194 190.953 272.535C190.953 272.535 189.936 268.949 188.867 264.237L207.275 269.003Z" fill="#E47D61"></path>
    <path d="M177.636 216.591C177.636 216.591 172.951 229.33 170.469 239.615C172.677 237.55 175.077 235.702 177.636 234.093V216.591Z" fill="#E47D61"></path>
    <path d="M205.693 401H127.047C129.215 381.868 131.853 362.86 134.886 348.184C135.155 346.881 135.433 345.64 135.721 344.461C139.12 330.401 143.8 324.115 149.081 323.344C149.081 323.344 168.334 332.163 195.209 326.502C195.209 326.502 202.732 328.959 204.097 349.465C204.603 357.137 205.177 377.952 205.693 401Z" fill="#EB5648"></path>
    <path d="M321.666 326.498C321.972 302.429 321.992 285.322 321.439 284.992C321.493 284.87 323.741 280.011 325.924 272.533V272.509C326.653 270.015 327.374 267.23 328.003 264.235C328.211 263.246 328.409 262.236 328.595 261.205C328.885 259.578 329.146 257.901 329.362 256.186C329.434 255.571 329.441 254.951 329.382 254.335C329.347 253.934 329.292 253.521 329.215 253.097C328.203 247.484 323.735 240.301 322.182 237.931C321.849 237.421 321.649 237.132 321.649 237.132C321.649 237.132 320.882 236.791 319.811 236.235C319.137 235.885 318.339 235.451 317.539 234.958C316.758 234.489 316.009 233.968 315.297 233.4C313.605 232 312.235 230.249 311.282 228.268C309.351 224.271 309.602 220.283 312.893 220.666C313.257 220.711 313.615 220.794 313.962 220.913L314.055 220.944C314.451 221.084 314.838 221.25 315.213 221.441C317.114 222.401 319.013 223.329 320.892 224.243C322.883 225.214 324.853 226.167 326.785 227.125C327.601 227.529 328.41 227.935 329.211 228.344C331.537 229.525 333.796 230.733 335.959 231.989C337.075 232.636 338.165 233.302 339.228 233.987C341.743 235.585 344.121 237.389 346.337 239.382C350.989 243.624 354.525 248.744 356.326 255.456C361.018 272.947 364.781 297.16 367.781 323.337C368.746 331.763 369.633 340.393 370.446 349.063C372.093 366.638 373.437 384.39 374.524 400.993H320.364C320.7 384.536 321.027 367.465 321.291 351.648C321.439 342.767 321.567 334.272 321.666 326.498Z" fill="#FAA98D"></path>
    <path d="M312.901 220.668C312.901 220.668 312.086 222.809 314.711 225.403C317.336 227.996 319.16 228.281 319.16 228.281C319.16 228.281 319.699 225.861 320.905 224.247C320.905 224.247 315.429 220.994 312.901 220.668Z" fill="#FFEBDC"></path>
    <path d="M309.598 269.003C309.598 269.003 319.585 269.194 325.92 272.535C325.92 272.535 326.936 268.949 328.005 264.237L309.598 269.003Z" fill="#E47D61"></path>
    <path d="M339.242 216.591C339.242 216.591 343.927 229.33 346.409 239.615C344.201 237.55 341.801 235.702 339.242 234.093V216.591Z" fill="#E47D61"></path>
    <path d="M389.83 401H311.184C311.7 377.952 312.268 357.137 312.783 349.465C314.145 328.959 321.672 326.502 321.672 326.502C348.553 332.163 367.8 323.344 367.8 323.344C373.081 324.115 377.772 330.401 381.16 344.461C381.449 345.647 381.728 346.888 381.995 348.184C385.023 362.86 387.644 381.868 389.83 401Z" fill="#EB5648"></path>
    <path d="M258.437 273.579C258.161 273.579 257.896 273.469 257.7 273.273C257.504 273.078 257.395 272.812 257.395 272.535V150.56C257.395 150.283 257.504 150.017 257.7 149.821C257.896 149.625 258.161 149.515 258.437 149.515C258.714 149.515 258.979 149.625 259.175 149.821C259.37 150.017 259.48 150.283 259.48 150.56V272.535C259.48 272.812 259.37 273.078 259.175 273.273C258.979 273.469 258.714 273.579 258.437 273.579Z" fill="#FFEBDC"></path>
    <path d="M204.091 349.465C167.628 362.176 135.719 344.47 135.719 344.47C139.118 330.41 143.798 324.124 149.079 323.353C149.079 323.353 168.33 332.171 195.207 326.511C195.207 326.498 202.721 328.959 204.091 349.465Z" fill="#CE3932"></path>
    <path d="M381.154 344.461C348.094 361.777 312.781 349.457 312.781 349.457C314.143 328.95 321.67 326.493 321.67 326.493C348.551 332.154 367.798 323.335 367.798 323.335C373.074 324.109 377.755 330.408 381.154 344.461Z" fill="#CE3932"></path>
    <path d="M346.022 32.4739L325.91 88.171L367.786 103.351L387.898 47.6539L346.022 32.4739Z" fill="#EB5648"></path>
    <path d="M386.676 43.3937L387.903 47.6554L367.79 103.354L366.562 99.0901L386.676 43.3937Z" fill="#CE3932"></path>
    <path d="M366.563 99.0901L325.668 84.2657L326.399 86.8287L367.393 101.972L366.563 99.0901Z" fill="#FFEBDC"></path>
    <path d="M344.796 28.2119L324.684 83.909L366.56 99.089L386.672 43.3919L344.796 28.2119Z" fill="#EB5648"></path>
    <path d="M380.025 53.3723C379.968 53.3724 379.91 53.3629 379.856 53.344C379.733 53.2989 379.632 53.2066 379.576 53.0873C379.521 52.968 379.514 52.8315 379.559 52.7076L382.202 45.3942L373.671 42.3034C373.554 42.2539 373.46 42.1611 373.409 42.0442C373.358 41.9273 373.354 41.7952 373.397 41.6752C373.44 41.5553 373.528 41.4566 373.642 41.3997C373.756 41.3428 373.888 41.3319 374.009 41.3694L383.004 44.6275C383.127 44.6725 383.228 44.7649 383.284 44.8842C383.339 45.0035 383.345 45.14 383.301 45.2639L380.483 53.0443C380.448 53.1389 380.386 53.2209 380.305 53.2794C380.223 53.338 380.126 53.3704 380.025 53.3723Z" fill="#CE3932"></path>
    <path d="M364.698 95.8233C364.641 95.8229 364.585 95.8126 364.531 95.7929L357.447 93.2168C357.386 93.1946 357.33 93.1605 357.282 93.1165C357.234 93.0725 357.195 93.0195 357.168 92.9605C357.14 92.9016 357.124 92.8377 357.122 92.7727C357.119 92.7076 357.129 92.6427 357.151 92.5815C357.173 92.5203 357.207 92.4641 357.251 92.4161C357.295 92.3681 357.348 92.3292 357.407 92.3016C357.466 92.2741 357.529 92.2585 357.594 92.2556C357.659 92.2528 357.724 92.2627 357.785 92.285L364.401 94.6743L366.977 87.5434C367.026 87.4257 367.119 87.3316 367.235 87.2805C367.352 87.2294 367.484 87.2251 367.604 87.2686C367.723 87.3122 367.822 87.4001 367.879 87.5143C367.935 87.6285 367.946 87.7602 367.909 87.8822L365.164 95.4845C365.142 95.5458 365.108 95.6021 365.065 95.6502C365.021 95.6983 364.968 95.7372 364.909 95.7647C364.844 95.8006 364.772 95.8207 364.698 95.8233Z" fill="#CE3932"></path>
    <path d="M335.764 85.3257C335.707 85.3251 335.649 85.3148 335.595 85.2953L328.357 82.6714C328.233 82.6262 328.133 82.5341 328.077 82.4151C328.023 82.2961 328.016 82.1606 328.06 82.0372L330.746 74.6065C330.768 74.5453 330.802 74.4891 330.845 74.441C330.889 74.3929 330.942 74.354 331.001 74.3263C331.059 74.2987 331.123 74.2829 331.188 74.28C331.253 74.277 331.318 74.2868 331.379 74.3089C331.44 74.331 331.496 74.3649 331.544 74.4088C331.592 74.4526 331.631 74.5055 331.658 74.5644C331.686 74.6233 331.702 74.687 331.705 74.752C331.708 74.817 331.698 74.882 331.676 74.9431L329.159 81.9068L335.933 84.3634C336.044 84.4025 336.137 84.4794 336.196 84.5807C336.255 84.6819 336.276 84.8009 336.256 84.9163C336.235 85.0318 336.175 85.1363 336.085 85.2113C335.995 85.2862 335.881 85.3268 335.764 85.3257Z" fill="#CE3932"></path>
    <path d="M344.096 39.6056C344.017 39.6061 343.938 39.5871 343.867 39.5505C343.797 39.5138 343.736 39.4605 343.69 39.3952C343.645 39.3298 343.616 39.2543 343.606 39.1752C343.595 39.0961 343.605 39.0158 343.632 38.941L346.206 31.8187C346.228 31.7576 346.262 31.7013 346.305 31.6532C346.349 31.6052 346.402 31.5662 346.461 31.5385C346.519 31.5109 346.583 31.4952 346.648 31.4922C346.713 31.4892 346.778 31.499 346.839 31.5212L354.907 34.4426C355.031 34.4873 355.131 34.5792 355.187 34.6981C355.243 34.8171 355.249 34.9533 355.204 35.0769C355.16 35.2004 355.068 35.3012 354.949 35.357C354.831 35.4128 354.695 35.4191 354.571 35.3744L346.984 32.6224L344.578 39.2798C344.542 39.3781 344.476 39.4625 344.39 39.521C344.303 39.5796 344.201 39.6092 344.096 39.6056Z" fill="#CE3932"></path>
    <path d="M347.458 86.4313C345.389 85.6811 343.487 84.5298 341.861 83.0431C340.236 81.5564 338.919 79.7634 337.985 77.7665C337.051 75.7696 336.519 73.6079 336.42 71.405C336.32 69.2021 336.654 67.0011 337.404 64.9277L342.457 50.9439C343.206 48.8704 344.355 46.9651 345.839 45.3368C347.323 43.7085 349.113 42.3891 351.106 41.4539C353.099 40.5188 355.256 39.9863 357.455 39.8868C359.653 39.7873 361.85 40.1228 363.919 40.8741C365.989 41.624 367.891 42.7752 369.517 44.2618C371.142 45.7485 372.459 47.5416 373.393 49.5385C374.327 51.5355 374.859 53.6973 374.958 55.9003C375.058 58.1033 374.723 60.3043 373.974 62.3777L368.925 76.3637C368.175 78.4373 367.026 80.3426 365.541 81.9709C364.057 83.5992 362.267 84.9185 360.273 85.8534C358.28 86.7883 356.122 87.3206 353.923 87.4197C351.724 87.5189 349.528 87.183 347.458 86.4313Z" fill="#FFEBDC"></path>
    <path d="M368.27 63.8156C368.213 63.8157 368.157 63.8062 368.103 63.7874L345.741 55.6812C345.624 55.6317 345.53 55.5389 345.479 55.422C345.428 55.3051 345.424 55.173 345.467 55.053C345.511 54.9331 345.598 54.8345 345.712 54.7775C345.826 54.7206 345.958 54.7097 346.08 54.7472L368.439 62.8534C368.549 62.8924 368.642 62.9694 368.701 63.0706C368.76 63.1718 368.782 63.2908 368.761 63.4063C368.741 63.5217 368.681 63.6263 368.591 63.7012C368.501 63.7762 368.387 63.8167 368.27 63.8156Z" fill="#CE3932"></path>
    <path d="M366.695 68.1815C366.638 68.1811 366.581 68.1708 366.528 68.1511L344.166 60.0449C344.103 60.0248 344.044 59.992 343.993 59.9485C343.942 59.9049 343.901 59.8515 343.871 59.7915C343.842 59.7316 343.825 59.6662 343.821 59.5994C343.817 59.5326 343.827 59.4657 343.85 59.4029C343.873 59.34 343.908 59.2825 343.954 59.2337C344 59.1849 344.055 59.1459 344.116 59.119C344.177 59.0921 344.243 59.0779 344.31 59.0773C344.377 59.0766 344.443 59.0895 344.504 59.1152L366.864 67.2214C366.974 67.2604 367.067 67.3374 367.126 67.4387C367.185 67.5399 367.207 67.6588 367.186 67.7743C367.166 67.8898 367.105 67.9943 367.015 68.0693C366.925 68.1442 366.812 68.1847 366.695 68.1836V68.1815Z" fill="#CE3932"></path>
    <path d="M365.124 72.5256C365.067 72.525 365.01 72.5147 364.955 72.4952L342.596 64.389C342.473 64.3444 342.372 64.2525 342.316 64.1335C342.261 64.0146 342.254 63.8783 342.299 63.7548C342.344 63.6312 342.435 63.5304 342.554 63.4746C342.673 63.4188 342.809 63.4126 342.932 63.4572L365.291 71.5634C365.402 71.6024 365.494 71.6791 365.553 71.7802C365.612 71.8812 365.634 71.9999 365.614 72.1152C365.594 72.2305 365.534 72.335 365.444 72.4102C365.355 72.4853 365.241 72.5262 365.124 72.5256Z" fill="#CE3932"></path>
    <path d="M267.48 318.652L235.961 330.838L252.106 372.761L283.625 360.575L267.48 318.652Z" fill="#004A99"></path>
    <path d="M236.81 327.599L235.949 330.851L252.093 372.776L252.956 369.522L236.81 327.599Z" fill="#004A99"></path>
    <path d="M252.954 369.522L283.736 357.624L283.222 359.578L252.371 371.723L252.954 369.522Z" fill="#FFEBDC"></path>
    <path d="M268.339 315.4L236.82 327.585L252.966 369.508L284.485 357.323L268.339 315.4Z" fill="#004A99"></path>
    <path d="M242.006 335.062C241.93 335.062 241.856 335.039 241.793 334.996C241.73 334.953 241.682 334.892 241.655 334.821L239.4 328.957C239.382 328.91 239.374 328.861 239.375 328.812C239.376 328.762 239.387 328.713 239.408 328.668C239.428 328.623 239.457 328.582 239.493 328.548C239.528 328.514 239.571 328.488 239.617 328.47L246.387 325.864C246.433 325.846 246.482 325.837 246.531 325.838C246.581 325.839 246.629 325.85 246.674 325.87C246.72 325.89 246.76 325.919 246.794 325.955C246.828 325.99 246.855 326.032 246.873 326.079C246.891 326.125 246.899 326.174 246.898 326.223C246.897 326.273 246.886 326.321 246.866 326.366C246.846 326.412 246.818 326.452 246.782 326.486C246.746 326.521 246.704 326.547 246.658 326.565L240.23 329.046L242.351 334.55C242.368 334.596 242.377 334.645 242.376 334.695C242.374 334.744 242.363 334.793 242.343 334.838C242.323 334.883 242.294 334.924 242.258 334.958C242.222 334.992 242.18 335.019 242.134 335.036C242.093 335.053 242.05 335.061 242.006 335.062Z" fill="#3396FF"></path>
    <path d="M254.306 367.007C254.23 367.007 254.156 366.984 254.093 366.942C254.031 366.899 253.982 366.839 253.954 366.768L251.752 361.049C251.734 361.003 251.726 360.954 251.727 360.904C251.728 360.855 251.739 360.806 251.759 360.761C251.779 360.716 251.807 360.675 251.843 360.641C251.879 360.607 251.921 360.58 251.967 360.562C252.012 360.545 252.061 360.536 252.111 360.537C252.16 360.538 252.209 360.549 252.254 360.569C252.299 360.589 252.34 360.618 252.374 360.654C252.408 360.689 252.434 360.731 252.452 360.777L254.52 366.145L259.506 364.22C259.552 364.202 259.602 364.193 259.651 364.194C259.701 364.195 259.75 364.206 259.795 364.226C259.84 364.246 259.881 364.274 259.916 364.31C259.95 364.346 259.976 364.389 259.994 364.435C260.012 364.481 260.02 364.531 260.019 364.58C260.018 364.63 260.006 364.679 259.986 364.724C259.966 364.769 259.937 364.81 259.9 364.844C259.864 364.878 259.822 364.904 259.775 364.922L254.444 366.983C254.4 367 254.353 367.008 254.306 367.007Z" fill="#3396FF"></path>
    <path d="M276.085 358.588C275.997 358.589 275.911 358.558 275.843 358.502C275.775 358.446 275.729 358.367 275.713 358.281C275.697 358.194 275.712 358.104 275.756 358.027C275.799 357.95 275.868 357.891 275.951 357.86L281.049 355.89L279.029 350.649C279.011 350.603 279.003 350.554 279.004 350.505C279.005 350.455 279.016 350.406 279.036 350.361C279.056 350.316 279.084 350.275 279.12 350.241C279.156 350.207 279.198 350.18 279.243 350.163C279.289 350.145 279.339 350.136 279.388 350.137C279.437 350.138 279.486 350.149 279.531 350.169C279.576 350.189 279.617 350.218 279.651 350.254C279.685 350.289 279.711 350.332 279.729 350.378L281.884 355.971C281.903 356.016 281.913 356.065 281.913 356.114C281.913 356.163 281.903 356.212 281.884 356.257C281.863 356.303 281.833 356.345 281.795 356.379C281.758 356.413 281.715 356.44 281.667 356.457L276.219 358.564C276.176 358.58 276.131 358.588 276.085 358.588Z" fill="#3396FF"></path>
    <path d="M269.033 324.043C268.958 324.043 268.884 324.02 268.821 323.978C268.759 323.935 268.71 323.875 268.682 323.804L266.753 318.793L261.038 321.002C260.945 321.038 260.842 321.036 260.751 320.996C260.66 320.955 260.589 320.88 260.553 320.787C260.517 320.694 260.519 320.591 260.559 320.5C260.6 320.408 260.674 320.337 260.767 320.301L266.837 317.955C266.93 317.92 267.034 317.923 267.125 317.963C267.216 318.004 267.287 318.079 267.323 318.172L269.389 323.533C269.424 323.626 269.421 323.73 269.381 323.821C269.34 323.912 269.265 323.983 269.172 324.019C269.128 324.036 269.081 324.045 269.033 324.043Z" fill="#3396FF"></path>
    <path d="M267.243 359.615C268.801 359.013 270.224 358.11 271.433 356.956C272.642 355.803 273.613 354.422 274.289 352.892C274.965 351.363 275.334 349.715 275.374 348.043C275.415 346.371 275.126 344.707 274.525 343.147L270.469 332.621C269.868 331.061 268.966 329.634 267.815 328.423C266.664 327.212 265.286 326.24 263.76 325.562C262.234 324.885 260.589 324.515 258.92 324.474C257.252 324.434 255.591 324.723 254.034 325.325C250.889 326.541 248.355 328.959 246.989 332.047C245.623 335.135 245.537 338.64 246.75 341.791L250.804 352.319C252.019 355.471 254.433 358.01 257.516 359.378C260.598 360.746 264.097 360.832 267.243 359.615Z" fill="#FFEBDC"></path>
    <path d="M251.089 342.788C251.001 342.789 250.915 342.759 250.847 342.702C250.779 342.646 250.733 342.568 250.717 342.481C250.701 342.394 250.716 342.304 250.76 342.228C250.803 342.151 250.872 342.092 250.954 342.061L267.784 335.544C267.83 335.527 267.879 335.518 267.928 335.519C267.977 335.52 268.026 335.531 268.071 335.551C268.116 335.571 268.157 335.6 268.191 335.636C268.225 335.671 268.251 335.713 268.269 335.76C268.287 335.806 268.296 335.855 268.294 335.904C268.293 335.953 268.282 336.002 268.262 336.047C268.243 336.093 268.214 336.133 268.178 336.167C268.143 336.202 268.101 336.228 268.055 336.246L251.223 342.762C251.18 342.779 251.135 342.788 251.089 342.788Z" fill="#004A99"></path>
    <path d="M252.353 346.079C252.264 346.08 252.179 346.05 252.11 345.994C252.042 345.938 251.995 345.86 251.979 345.773C251.963 345.686 251.978 345.596 252.021 345.519C252.064 345.442 252.133 345.382 252.216 345.351L269.048 338.835C269.14 338.799 269.244 338.802 269.335 338.842C269.426 338.882 269.497 338.957 269.533 339.05C269.569 339.143 269.567 339.247 269.526 339.338C269.486 339.429 269.411 339.501 269.319 339.537L252.487 346.053C252.444 346.07 252.399 346.079 252.353 346.079Z" fill="#004A99"></path>
    <path d="M253.612 349.35C253.524 349.351 253.439 349.32 253.371 349.264C253.303 349.208 253.257 349.13 253.241 349.043C253.225 348.956 253.24 348.866 253.283 348.789C253.326 348.713 253.395 348.654 253.478 348.623L270.309 342.117C270.355 342.099 270.404 342.091 270.454 342.092C270.503 342.093 270.551 342.104 270.596 342.124C270.642 342.144 270.682 342.173 270.716 342.208C270.75 342.244 270.777 342.286 270.795 342.332C270.813 342.378 270.821 342.427 270.82 342.477C270.819 342.526 270.808 342.575 270.788 342.62C270.768 342.665 270.74 342.706 270.704 342.74C270.668 342.774 270.626 342.801 270.58 342.819L253.749 349.324C253.705 349.341 253.659 349.35 253.612 349.35Z" fill="#004A99"></path>
    <path d="M217.575 13.9364L166.938 36.4726L196.797 103.826L247.435 81.2895L217.575 13.9364Z" fill="#004A99"></path>
    <path d="M168.082 31.065L166.938 36.4626L196.8 103.814L197.945 98.4146L168.082 31.065Z" fill="#3396FF"></path>
    <path d="M197.946 98.4146L247.683 76.2768L246.716 79.65L197.172 102.066L197.946 98.4146Z" fill="#FFEBDC"></path>
    <path d="M218.724 8.53927L168.086 31.0754L197.945 98.4285L248.583 75.8924L218.724 8.53927Z" fill="#3396FF"></path>
    <path d="M217.928 10.5824L246.529 75.093L198.734 96.3663L170.133 31.8557L217.928 10.5824ZM218.719 8.5254L168.082 31.065L197.955 98.4146L248.59 75.8771L218.719 8.5254Z" fill="#004A99"></path>
    <path d="M232.365 94.6113L236.487 92.752L232.712 83.9594L228.637 85.7514L232.365 94.6113Z" fill="#CE3932"></path>
    <path d="M180.29 42.3077C180.171 42.3078 180.054 42.2732 179.954 42.208C179.854 42.1429 179.775 42.05 179.727 41.9406C179.27 40.9101 179.02 39.7994 178.991 38.672C178.962 37.5447 179.156 36.4227 179.56 35.3702C179.964 34.3177 180.571 33.3554 181.347 32.538C182.122 31.7207 183.051 31.0644 184.08 30.6067C184.154 30.5739 184.234 30.556 184.314 30.5541C184.395 30.5522 184.476 30.5663 184.551 30.5955C184.627 30.6248 184.696 30.6686 184.754 30.7246C184.813 30.7805 184.86 30.8475 184.893 30.9217C184.925 30.9958 184.943 31.0757 184.945 31.1568C184.947 31.2379 184.933 31.3185 184.904 31.3942C184.875 31.4698 184.831 31.5389 184.775 31.5976C184.719 31.6563 184.652 31.7034 184.578 31.7362C182.801 32.5293 181.411 33.9964 180.712 35.8154C180.014 37.6344 180.064 39.6568 180.852 41.4389C180.885 41.5129 180.903 41.5927 180.905 41.6737C180.907 41.7547 180.893 41.8353 180.864 41.9109C180.835 41.9866 180.792 42.0557 180.736 42.1145C180.68 42.1733 180.613 42.2205 180.54 42.2534C180.461 42.2889 180.376 42.3074 180.29 42.3077Z" fill="#004A99"></path>
    <path d="M218.393 25.346C218.274 25.3461 218.157 25.3115 218.057 25.2463C217.957 25.1811 217.878 25.0882 217.829 24.9789C217.037 23.1983 215.573 21.8054 213.757 21.1058C211.941 20.4061 209.922 20.457 208.143 21.2473C207.996 21.3027 207.833 21.2996 207.688 21.2385C207.542 21.1775 207.426 21.0632 207.362 20.9189C207.298 20.7747 207.291 20.6114 207.343 20.4625C207.396 20.3136 207.503 20.1903 207.643 20.1178C209.72 19.197 212.077 19.1389 214.197 19.956C216.316 20.7731 218.027 22.3989 218.952 24.4771C218.994 24.5711 219.011 24.6738 219.003 24.7762C218.995 24.8785 218.961 24.9772 218.906 25.0634C218.85 25.1496 218.774 25.2205 218.684 25.2698C218.594 25.3192 218.493 25.3453 218.391 25.346H218.393Z" fill="#004A99"></path>
    <path d="M232.333 76.3854C232.193 76.3851 232.056 76.3366 231.947 76.2478C231.837 76.159 231.762 76.0353 231.732 75.8974C231.703 75.7595 231.722 75.6156 231.785 75.4898C231.849 75.364 231.953 75.2638 232.082 75.206C233.861 74.4138 235.253 72.9461 235.951 71.1257C236.65 69.3053 236.599 67.2813 235.808 65.499C235.772 65.4245 235.752 65.3435 235.748 65.2608C235.744 65.1782 235.756 65.0956 235.785 65.0179C235.813 64.9402 235.857 64.869 235.913 64.8086C235.97 64.7482 236.038 64.6998 236.113 64.6663C236.189 64.6327 236.27 64.6148 236.353 64.6135C236.435 64.6121 236.517 64.6275 236.594 64.6585C236.67 64.6896 236.74 64.7358 236.798 64.7944C236.857 64.8529 236.903 64.9226 236.934 64.9994C237.856 67.0805 237.916 69.4435 237.1 71.5689C236.284 73.6943 234.659 75.408 232.583 76.3333C232.504 76.3669 232.419 76.3847 232.333 76.3854Z" fill="#004A99"></path>
    <path d="M205.529 87.5694C203.87 87.5667 202.248 87.0833 200.858 86.1776C199.468 85.2719 198.369 83.9825 197.694 82.465C197.627 82.3155 197.623 82.1457 197.682 81.993C197.74 81.8402 197.857 81.717 198.006 81.6505C198.155 81.584 198.325 81.5795 198.477 81.6382C198.63 81.6969 198.753 81.8138 198.819 81.9633C199.21 82.8457 199.771 83.6422 200.47 84.3075C201.168 84.9727 201.991 85.4935 202.89 85.8402C203.79 86.1869 204.748 86.3527 205.712 86.3282C206.675 86.3036 207.624 86.0892 208.505 85.6971C208.653 85.6417 208.816 85.6448 208.961 85.7058C209.106 85.7668 209.223 85.8811 209.287 86.0254C209.351 86.1696 209.357 86.3329 209.305 86.4818C209.253 86.6307 209.146 86.7541 209.006 86.8266C207.911 87.3154 206.727 87.5685 205.529 87.5694Z" fill="#004A99"></path>
    <path d="M194.135 57.4775C193.993 57.4783 193.856 57.4303 193.745 57.3413C193.635 57.2524 193.559 57.1281 193.529 56.9893C193.5 56.8505 193.519 56.7057 193.583 56.5794C193.648 56.4531 193.754 56.3529 193.884 56.2959L220.923 44.2604C220.998 44.2243 221.079 44.2037 221.161 44.1995C221.244 44.1954 221.326 44.208 221.404 44.2365C221.481 44.265 221.552 44.3088 221.613 44.3654C221.673 44.4219 221.721 44.4901 221.755 44.5657C221.788 44.6414 221.806 44.723 221.807 44.8058C221.809 44.8885 221.793 44.9707 221.762 45.0473C221.731 45.124 221.685 45.1937 221.627 45.2522C221.568 45.3106 221.499 45.3567 221.422 45.3877L194.384 57.4232C194.306 57.459 194.221 57.4775 194.135 57.4775Z" fill="#004A99"></path>
    <path d="M196.472 62.7534C196.33 62.7551 196.192 62.7074 196.082 62.6186C195.971 62.5297 195.894 62.4052 195.865 62.2661C195.835 62.1271 195.855 61.9821 195.92 61.8559C195.986 61.7297 196.093 61.6301 196.223 61.574L223.261 49.5385C223.334 49.5056 223.414 49.4875 223.495 49.4854C223.576 49.4833 223.656 49.4972 223.732 49.5262C223.807 49.5553 223.876 49.5989 223.935 49.6547C223.994 49.7105 224.041 49.7773 224.074 49.8513C224.106 49.9253 224.124 50.0051 224.127 50.0861C224.129 50.1671 224.115 50.2477 224.086 50.3234C224.057 50.399 224.013 50.4682 223.958 50.5269C223.902 50.5857 223.835 50.6329 223.761 50.6658L196.722 62.7013C196.643 62.7366 196.558 62.7544 196.472 62.7534Z" fill="#004A99"></path>
    <path d="M489.356 223.213L435.191 265.165C435.191 265.165 437.773 280.189 449.419 298.159L489.143 298.552C489.143 298.552 498.205 255.562 489.356 223.213Z" fill="#D67F18"></path>
    <path d="M423.979 130.91L382.609 248.744L471.2 279.968L512.57 162.133L423.979 130.91Z" fill="#3396FF"></path>
    <path d="M509.876 153.142L512.541 162.106L471.18 279.944L468.516 270.977L509.876 153.142Z" fill="#004A99"></path>
    <path d="M435.688 267.437C435.688 267.437 448.348 274.388 455.426 281.24L463.031 277.072L435.688 267.437Z" fill="#BE620E"></path>
    <path d="M468.516 270.977L382.945 240.825L383.585 245.881L468.513 276.392L468.516 270.977Z" fill="#FFEBDC"></path>
    <path d="M421.315 121.943L379.945 239.778L468.536 271.001L509.906 153.167L421.315 121.943Z" fill="#3396FF"></path>
    <path d="M422.896 125.29L506.519 154.756L466.903 267.613L383.282 238.146L422.896 125.29ZM421.285 121.923L379.922 239.76L468.516 270.977L509.877 153.142L421.285 121.923Z" fill="#99CAFF"></path>
    <path d="M409.848 269.214L402.633 266.629L407.823 251.266L414.951 253.74L409.848 269.214Z" fill="#004A99"></path>
    <path d="M453.092 253.733C451.447 253.732 449.814 253.45 448.262 252.901L407.016 238.368C405.216 237.734 403.558 236.752 402.137 235.476C400.716 234.2 399.559 232.656 398.734 230.933C397.909 229.209 397.43 227.34 397.326 225.431C397.222 223.522 397.495 221.611 398.128 219.808L423.03 148.913C424.311 145.274 426.98 142.293 430.452 140.623C433.924 138.954 437.916 138.732 441.55 140.008L482.781 154.535C486.414 155.818 489.39 158.493 491.056 161.972C492.722 165.451 492.943 169.451 491.67 173.093L466.782 243.994C465.783 246.834 463.93 249.294 461.479 251.037C459.028 252.779 456.098 253.718 453.092 253.725V253.733ZM436.751 141.283C434.174 141.283 431.661 142.084 429.558 143.575C427.455 145.066 425.865 147.174 425.007 149.608L400.105 220.5C399.563 222.044 399.329 223.68 399.418 225.314C399.506 226.949 399.915 228.55 400.622 230.025C401.328 231.501 402.317 232.823 403.534 233.916C404.75 235.009 406.169 235.85 407.71 236.394L448.956 250.927C450.497 251.471 452.13 251.705 453.761 251.617C455.393 251.528 456.991 251.119 458.464 250.411C459.937 249.703 461.257 248.712 462.348 247.493C463.438 246.274 464.279 244.852 464.82 243.307L489.708 172.406C490.798 169.289 490.609 165.865 489.183 162.886C487.757 159.907 485.21 157.617 482.1 156.518L440.865 141.982C439.544 141.515 438.152 141.276 436.751 141.276V141.283Z" fill="#004A99"></path>
    <path d="M497.593 401H436.5C437.775 390.859 447.734 311.569 448.712 303.776C450.446 296.252 447.25 294.516 455.432 281.24C457.528 278.232 459.237 277.331 462.094 274.073C467.644 266.746 470.928 259.778 471.056 246.357C468.22 242.94 467.178 236.213 470.176 231.183C475.699 222.262 477.735 231.782 479.341 236.613C481.78 244.052 483.744 251.166 485.167 258.84C491.05 305.129 492.568 350.456 497.593 401Z" fill="#D67F18"></path>
    <path d="M476.15 228.422C476.15 228.422 474.082 229.397 474.175 233.09C474.268 236.782 475.387 238.255 475.387 238.255C475.387 238.255 477.364 236.991 479.348 236.665C479.345 236.665 477.745 230.414 476.15 228.422Z" fill="#FFEBDC"></path>
    <path d="M482.582 247.462C483.671 251.204 484.532 255.007 485.162 258.853C485.162 258.853 489.738 243.629 490.087 226.076L482.582 247.462Z" fill="#BE620E"></path>
    <path d="M476.982 180.495C476.864 180.495 476.747 180.475 476.635 180.437L429.33 163.766C429.201 163.72 429.082 163.65 428.98 163.558C428.878 163.467 428.795 163.356 428.736 163.232C428.676 163.108 428.642 162.974 428.634 162.837C428.627 162.7 428.646 162.563 428.692 162.433C428.737 162.304 428.808 162.184 428.899 162.082C428.99 161.98 429.101 161.897 429.225 161.837C429.348 161.778 429.482 161.744 429.619 161.736C429.756 161.729 429.893 161.748 430.022 161.794L477.329 178.462C477.561 178.545 477.756 178.707 477.88 178.919C478.004 179.132 478.05 179.382 478.008 179.625C477.967 179.867 477.841 180.088 477.654 180.247C477.466 180.406 477.228 180.494 476.982 180.495Z" fill="#004A99"></path>
    <path d="M473.744 189.729C473.626 189.729 473.509 189.709 473.397 189.67L426.092 172.999C425.963 172.954 425.844 172.883 425.742 172.792C425.64 172.7 425.557 172.589 425.497 172.466C425.438 172.342 425.404 172.208 425.396 172.071C425.389 171.933 425.408 171.796 425.454 171.667C425.499 171.537 425.569 171.418 425.661 171.316C425.752 171.214 425.863 171.13 425.986 171.071C426.11 171.012 426.244 170.977 426.381 170.97C426.517 170.962 426.654 170.982 426.784 171.027L474.089 187.702C474.321 187.784 474.517 187.945 474.642 188.157C474.768 188.37 474.814 188.62 474.772 188.863C474.731 189.107 474.605 189.327 474.417 189.487C474.229 189.646 473.99 189.733 473.744 189.733V189.729Z" fill="#004A99"></path>
    <path d="M470.517 198.921C470.399 198.92 470.283 198.901 470.172 198.862L422.865 182.192C422.735 182.146 422.616 182.075 422.514 181.984C422.412 181.892 422.329 181.781 422.27 181.657C422.211 181.533 422.177 181.399 422.169 181.262C422.162 181.125 422.182 180.987 422.227 180.858C422.273 180.728 422.343 180.609 422.435 180.507C422.527 180.405 422.637 180.322 422.761 180.262C422.884 180.203 423.019 180.169 423.155 180.161C423.292 180.154 423.429 180.174 423.558 180.219L470.864 196.888C471.095 196.971 471.29 197.133 471.414 197.345C471.539 197.558 471.584 197.808 471.543 198.05C471.501 198.293 471.376 198.514 471.188 198.673C471 198.832 470.763 198.92 470.517 198.921Z" fill="#004A99"></path>
    <path d="M446.902 318.211L448.715 303.776C448.715 303.776 468.187 310.379 489.534 303.559L490.795 319.38C490.795 319.38 471.649 331.255 446.902 318.211Z" fill="#FFEBDC"></path>
    <path d="M503.382 401H426.496C432.278 370.443 439.764 335.968 446.902 318.211C447.314 318.405 466.383 327.154 490.789 319.38C490.795 319.382 497.81 333.766 503.382 401Z" fill="#004A99"></path>
    <path d="M452.417 314.814C453.639 314.814 454.63 313.821 454.63 312.597C454.63 311.372 453.639 310.379 452.417 310.379C451.194 310.379 450.203 311.372 450.203 312.597C450.203 313.821 451.194 314.814 452.417 314.814Z" fill="#004A99"></path>
    <path d="M33.1611 170.806L88.7302 210.874C88.7302 210.874 86.6598 225.978 75.6384 244.324L35.9489 246.083C35.9489 246.083 25.4218 203.439 33.1611 170.806Z" fill="#F99370"></path>
    <path d="M95.3757 76.2891L7.90234 110.53L53.27 226.878L140.743 192.637L95.3757 76.2891Z" fill="#004A99"></path>
    <path d="M10.2588 101.479L7.90234 110.53L53.2694 226.878L55.6259 217.827L10.2588 101.479Z" fill="#004A99"></path>
    <path d="M88.309 213.161C88.309 213.161 75.8936 220.533 69.054 227.634L61.3125 223.724L88.309 213.161Z" fill="#E57D61"></path>
    <path d="M55.625 217.827L140.114 184.755L139.647 189.831L55.8114 223.237L55.625 217.827Z" fill="#FFEBDC"></path>
    <path d="M97.7351 67.2384L10.2617 101.479L55.6293 217.827L143.103 183.586L97.7351 67.2384Z" fill="#004A99"></path>
    <path d="M59.3468 210.82C59.1369 210.82 58.932 210.756 58.7587 210.638C58.5855 210.519 58.4519 210.351 58.3756 210.155L17.47 105.244C17.3693 104.985 17.3751 104.697 17.486 104.443C17.597 104.189 17.8041 103.99 18.0618 103.888L93.6035 74.3198C93.8611 74.219 94.1481 74.2248 94.4014 74.336C94.6546 74.4472 94.8535 74.6547 94.9541 74.9127L135.884 179.824C135.983 180.082 135.977 180.37 135.866 180.624C135.755 180.877 135.549 181.077 135.292 181.179L59.7262 210.748C59.6055 210.796 59.4767 210.82 59.3468 210.82ZM19.7939 105.459L59.9386 208.415L133.568 179.602L93.3976 76.6461L19.7939 105.459Z" fill="#004A99"></path>
    <path d="M62.3106 203L128.151 177.228L91.0219 82.0697L25.2031 107.833L62.3106 203Z" fill="#004A99"></path>
    <path d="M100.786 401H28.3555C29.6562 375.784 31.2691 343.89 32.8863 311.098C34.1133 286.097 35.0217 267.656 35.9539 246.094C36.5153 227.01 37.1917 208.971 40.7644 194.807C41.586 191.23 42.5962 187.45 43.665 183.775C44.5907 181.169 45.0069 177.891 46.5786 175.575C49.6938 172.115 53.8388 179.175 54.3721 182.632C55.4561 186.082 53.9992 190.973 52.2498 193.317C52.8373 206.729 56.3557 213.576 62.1548 220.709C65.1161 223.852 66.8612 224.699 69.0551 227.634C77.7765 240.842 74.516 242.445 76.5885 250.251C82.9122 289.635 94.3954 361.168 100.786 401Z" fill="#F99370"></path>
    <path d="M46.5413 175.558C46.5413 175.558 48.6419 176.462 48.6744 180.156C48.707 183.851 47.6404 185.369 47.6404 185.369C47.6404 185.369 45.6524 184.066 43.6602 183.803C43.6602 183.792 45.0129 177.604 46.5413 175.558Z" fill="#FFEBDC"></path>
    <path d="M40.7648 194.807C39.8047 198.584 39.0735 202.415 38.5753 206.28C38.5753 206.28 33.4808 191.223 32.5312 173.699L40.7648 194.807Z" fill="#E57D61"></path>
    <path d="M113.127 401H23.7266C23.7959 399.183 23.874 397.367 23.9607 395.552C24.3119 388.261 24.7997 381.019 25.3676 374.018C26.0484 365.617 26.8461 357.563 27.6613 350.191C28.5479 342.187 29.4563 334.986 30.2627 329.007C31.726 318.133 32.8641 311.313 32.8858 311.102C56.0691 319.89 85.9077 308.32 85.9077 308.32C87.7959 314.037 89.6776 319.936 91.5246 325.868C93.5949 332.517 95.6197 339.207 97.5578 345.734C99.9143 353.681 102.139 361.386 104.15 368.469C106.364 376.262 108.317 383.306 109.904 389.104C111.276 394.108 112.373 398.176 113.127 401Z" fill="#3396FF"></path>
    <path d="M43.4099 127.82C43.1674 127.819 42.9329 127.733 42.7466 127.577C42.5604 127.421 42.434 127.206 42.3891 126.967C42.3443 126.728 42.3837 126.481 42.5008 126.268C42.6178 126.055 42.8051 125.89 43.0306 125.8L89.7396 107.518C89.9983 107.417 90.2864 107.423 90.5405 107.535C90.7946 107.647 90.9939 107.856 91.0945 108.115C91.1951 108.374 91.1888 108.663 91.077 108.918C90.9652 109.172 90.757 109.372 90.4983 109.473L43.7893 127.753C43.6684 127.8 43.5395 127.822 43.4099 127.82Z" fill="#004A99"></path>
    <path d="M46.9662 136.939C46.7227 136.938 46.4868 136.853 46.2994 136.697C46.112 136.541 45.9849 136.325 45.9399 136.085C45.8949 135.845 45.9349 135.597 46.053 135.384C46.1711 135.17 46.3599 135.005 46.5868 134.916L93.2958 116.634C93.5545 116.533 93.8426 116.539 94.0967 116.651C94.3508 116.763 94.5501 116.972 94.6507 117.231C94.7513 117.491 94.7451 117.779 94.6333 118.034C94.5215 118.288 94.3133 118.488 94.0546 118.589L47.3456 136.876C47.2243 136.921 47.0955 136.942 46.9662 136.939Z" fill="#004A99"></path>
    <path d="M50.5058 146.013C50.2631 146.013 50.0282 145.927 49.8416 145.771C49.655 145.616 49.5282 145.4 49.4831 145.161C49.4379 144.922 49.4772 144.675 49.5942 144.462C49.7113 144.249 49.8987 144.083 50.1243 143.993L96.8333 125.709C96.9614 125.659 97.0981 125.635 97.2355 125.638C97.3729 125.641 97.5084 125.671 97.6342 125.726C97.76 125.782 97.8737 125.862 97.9688 125.961C98.0638 126.061 98.1384 126.178 98.1882 126.306C98.238 126.435 98.2621 126.572 98.2591 126.709C98.2561 126.847 98.2261 126.983 98.1707 127.109C98.1154 127.235 98.0358 127.349 97.9365 127.444C97.8372 127.539 97.7201 127.614 97.592 127.664L50.8852 145.942C50.7641 145.989 50.6356 146.013 50.5058 146.013Z" fill="#004A99"></path>
    <path d="M35.6778 252.389C35.6778 252.389 50.2372 259.774 76.5856 250.249C76.5856 250.249 81.0015 254.771 78.0879 259.589C78.0879 259.589 53.4587 269.828 35.2377 262.113C35.2377 262.12 31.1903 257.797 35.6778 252.389Z" fill="#004A99"></path>
    <path d="M64.6408 258.69C64.6886 258.917 64.668 259.154 64.5816 259.37C64.4952 259.585 64.3469 259.77 64.1555 259.902C63.9641 260.033 63.7381 260.104 63.5062 260.107C63.2743 260.109 63.0468 260.043 62.8525 259.916C62.6582 259.789 62.5059 259.607 62.4147 259.394C62.3235 259.18 62.2977 258.944 62.3403 258.716C62.383 258.487 62.4923 258.277 62.6545 258.11C62.8166 257.944 63.0243 257.83 63.2512 257.782C63.402 257.75 63.5575 257.748 63.7089 257.777C63.8604 257.805 64.0047 257.863 64.1338 257.948C64.2628 258.032 64.374 258.141 64.461 258.268C64.548 258.396 64.6091 258.539 64.6408 258.69Z" fill="#004A99"></path>
    <path d="M68.5315 257.741C68.5792 257.968 68.5585 258.204 68.4721 258.42C68.3858 258.636 68.2376 258.821 68.0463 258.952C67.855 259.083 67.6292 259.155 67.3973 259.157C67.1655 259.16 66.9381 259.094 66.7438 258.967C66.5495 258.84 66.3971 258.659 66.3058 258.445C66.2144 258.232 66.1883 257.996 66.2307 257.767C66.2731 257.539 66.382 257.328 66.5438 257.162C66.7056 256.996 66.913 256.881 67.1398 256.833C67.4445 256.768 67.7622 256.828 68.0232 256.998C68.2842 257.168 68.467 257.435 68.5315 257.741Z" fill="#004A99"></path>
    <path d="M72.4373 256.733C72.4854 256.96 72.4652 257.197 72.3791 257.413C72.2931 257.629 72.1451 257.814 71.9538 257.946C71.7625 258.077 71.5366 258.149 71.3046 258.152C71.0726 258.155 70.8449 258.089 70.6505 257.962C70.456 257.835 70.3034 257.653 70.212 257.44C70.1206 257.226 70.0945 256.99 70.1371 256.761C70.1796 256.533 70.2888 256.322 70.4509 256.156C70.613 255.99 70.8207 255.875 71.0477 255.827C71.3518 255.763 71.669 255.822 71.9296 255.992C72.1901 256.162 72.3727 256.428 72.4373 256.733Z" fill="#004A99"></path>
    <path d="M91.528 325.874C59.0858 338.661 30.3202 329.235 30.3202 329.235L30.2617 329.004C31.725 318.131 32.8632 311.311 32.8848 311.1C56.0681 319.888 85.9067 308.318 85.9067 308.318C87.7949 314.034 89.6766 319.934 91.5236 325.866C91.5253 325.868 91.5268 325.871 91.528 325.874Z" fill="#3396FF"></path>
    <path d="M104.15 368.462C104.15 368.462 64.9114 383.306 25.3672 374.014C26.0479 365.613 26.8457 357.559 27.6608 350.186C27.6608 350.186 61.6162 361.764 97.5509 345.721C99.9138 353.675 102.134 361.379 104.15 368.462Z" fill="#3396FF"></path>
    <path d="M113.127 401H23.7266C23.7959 399.183 23.874 397.367 23.9607 395.552C23.9607 395.552 25.6083 395.883 28.5934 396.297C39.4328 397.798 67.9642 400.398 99.3767 392.227C102.857 391.322 106.366 390.279 109.904 389.099C111.276 394.108 112.373 398.176 113.127 401Z" fill="#3396FF"></path>
  </g>
  <defs>
    <clipPath id="clip0_3322_14005">
      <rect width="515" height="401" fill="white"></rect>
    </clipPath>
  </defs>
</svg>
