<?xml version="1.0" encoding="UTF-8"?>
<!DOCTYPE svg PUBLIC "-//W3C//DTD SVG 1.1//EN" "http://www.w3.org/Graphics/SVG/1.1/DTD/svg11.dtd">
<svg xmlns="http://www.w3.org/2000/svg" version="1.1" width="64px" height="64px" style="shape-rendering:geometricPrecision; text-rendering:geometricPrecision; image-rendering:optimizeQuality; fill-rule:evenodd; clip-rule:evenodd" xmlns:xlink="http://www.w3.org/1999/xlink">
<g><path style="opacity:0.618" fill="#95d1ff" d="M 30.5,2.5 C 32.4646,2.94835 32.7979,3.94835 31.5,5.5C 30.6143,4.67504 30.281,3.67504 30.5,2.5 Z"/></g>
<g><path style="opacity:0.88" fill="#fd0536" d="M 16.5,4.5 C 19.5961,10.3668 22.9294,16.0334 26.5,21.5C 25.4863,22.6737 24.153,23.3404 22.5,23.5C 19.1788,17.5272 15.8455,11.5272 12.5,5.5C 13.6888,4.57131 15.0222,4.23798 16.5,4.5 Z"/></g>
<g><path style="opacity:0.964" fill="#fb0c35" d="M 41.5,4.5 C 43.1667,4.5 44.8333,4.5 46.5,4.5C 43.5,10.5 40.5,16.5 37.5,22.5C 36.0413,22.5674 34.7079,22.2341 33.5,21.5C 36.4235,15.9849 39.0902,10.3182 41.5,4.5 Z"/></g>
<g><path style="opacity:0.607" fill="#95d4ff" d="M 56.5,4.5 C 57.675,4.28099 58.675,4.61432 59.5,5.5C 57.9483,6.79789 56.9483,6.46455 56.5,4.5 Z"/></g>
<g><path style="opacity:1" fill="#c5002a" d="M 16.5,4.5 C 18.1667,4.5 19.8333,4.5 21.5,4.5C 23.5441,10.255 26.3775,15.5884 30,20.5C 30.9383,18.5115 31.7717,16.5115 32.5,14.5C 33.9867,11.5266 35.4867,8.52656 37,5.5C 38.3561,4.61983 39.8561,4.28649 41.5,4.5C 39.0902,10.3182 36.4235,15.9849 33.5,21.5C 31.1667,21.5 28.8333,21.5 26.5,21.5C 22.9294,16.0334 19.5961,10.3668 16.5,4.5 Z"/></g>
<g><path style="opacity:0.88" fill="#fc0034" d="M 21.5,4.5 C 22.8734,4.34332 24.2068,4.50999 25.5,5C 27.1274,7.75418 28.6274,10.5875 30,13.5C 30.6708,14.2524 31.5041,14.5858 32.5,14.5C 31.7717,16.5115 30.9383,18.5115 30,20.5C 26.3775,15.5884 23.5441,10.255 21.5,4.5 Z"/></g>
<g><path style="opacity:1" fill="#c8022a" d="M 46.5,4.5 C 47.9778,4.23798 49.3112,4.57131 50.5,5.5C 47.1545,11.5272 43.8212,17.5272 40.5,23.5C 39.391,23.4431 38.391,23.1098 37.5,22.5C 40.5,16.5 43.5,10.5 46.5,4.5 Z"/></g>
<g><path style="opacity:0.468" fill="#94d1ff" d="M 8.5,7.5 C 10.6246,8.36758 10.7913,9.36758 9,10.5C 7.31673,9.82352 7.15007,8.82352 8.5,7.5 Z"/></g>
<g><path style="opacity:0.782" fill="#5bbdff" d="M 52.5,11.5 C 58.5548,10.9421 59.8881,13.1088 56.5,18C 51.7915,18.082 50.4582,15.9154 52.5,11.5 Z"/></g>
<g><path style="opacity:0.846" fill="#5cbeff" d="M 6.5,16.5 C 13.048,16.2072 15.048,19.0405 12.5,25C 6.74409,27.5693 3.91075,25.736 4,19.5C 5.04499,18.6266 5.87833,17.6266 6.5,16.5 Z"/></g>
<g><path style="opacity:0.654" fill="#94d2ff" d="M 49.5,20.5 C 52.9571,20.6672 53.2904,21.6672 50.5,23.5C 49.6143,22.675 49.281,21.675 49.5,20.5 Z"/></g>
<g><path style="opacity:0.93" fill="#ffd40c" d="M 26.5,21.5 C 28.8333,21.5 31.1667,21.5 33.5,21.5C 34.7079,22.2341 36.0413,22.5674 37.5,22.5C 38.391,23.1098 39.391,23.4431 40.5,23.5C 50.0238,28.906 53.1905,36.906 50,47.5C 43.1484,59.9367 33.3151,63.1034 20.5,57C 11.4802,49.2344 9.64687,40.0677 15,29.5C 17.1057,26.8823 19.6057,24.8823 22.5,23.5C 24.153,23.3404 25.4863,22.6737 26.5,21.5 Z"/></g>
<g><path style="opacity:1" fill="#fffcfa" d="M 27.5,26.5 C 42.7502,26.8992 47.9169,34.2326 43,48.5C 35.2998,56.4127 27.6331,56.4127 20,48.5C 15.3993,38.7085 17.8993,31.3752 27.5,26.5 Z"/></g>
<g><path style="opacity:0.536" fill="#93d4ff" d="M 5.5,34.5 C 6.67504,34.281 7.67504,34.6143 8.5,35.5C 6.94835,36.7979 5.94835,36.4646 5.5,34.5 Z"/></g>
<g><path style="opacity:1" fill="#ff304e" d="M 31.5,32.5 C 32.339,33.6412 33.0057,34.9745 33.5,36.5C 35.0777,37.2978 36.7444,37.7978 38.5,38C 37.3147,39.353 35.9814,40.5197 34.5,41.5C 35.8181,45.6922 34.8181,46.3588 31.5,43.5C 30.1861,44.3128 29.0195,45.3128 28,46.5C 28,44.5 28,42.5 28,40.5C 26.7453,39.7894 25.5786,38.956 24.5,38C 26.4727,37.5045 28.4727,37.3379 30.5,37.5C 30.366,35.7085 30.6993,34.0418 31.5,32.5 Z"/></g>
<g><path style="opacity:0.418" fill="#94d2ff" d="M 55.5,36.5 C 57.4646,36.9483 57.7979,37.9483 56.5,39.5C 55.6143,38.675 55.281,37.675 55.5,36.5 Z"/></g>
<g><path style="opacity:0.433" fill="#96ceff" d="M 52.5,51.5 C 54.4646,51.9483 54.7979,52.9483 53.5,54.5C 51.4807,53.8671 51.1474,52.8671 52.5,51.5 Z"/></g>
<g><path style="opacity:0.625" fill="#90daff" d="M 12.5,54.5 C 13.3764,54.3691 14.0431,54.7025 14.5,55.5C 12.1916,56.8734 11.5249,56.5401 12.5,54.5 Z"/></g>
</svg>
