<?xml version="1.0" encoding="UTF-8"?>
<!DOCTYPE svg PUBLIC "-//W3C//DTD SVG 1.1//EN" "http://www.w3.org/Graphics/SVG/1.1/DTD/svg11.dtd">
<svg xmlns="http://www.w3.org/2000/svg" version="1.1" width="64px" height="64px" style="shape-rendering:geometricPrecision; text-rendering:geometricPrecision; image-rendering:optimizeQuality; fill-rule:evenodd; clip-rule:evenodd" xmlns:xlink="http://www.w3.org/1999/xlink">
<g><path style="opacity:0.317" fill="#000000" d="M 30.5,2.5 C 33.9571,2.66721 34.2904,3.66721 31.5,5.5C 30.6143,4.67504 30.281,3.67504 30.5,2.5 Z"/></g>
<g><path style="opacity:0.545" fill="#130502" d="M 12.5,3.5 C 17.2137,3.17338 21.8804,3.50671 26.5,4.5C 27.8314,7.8338 29.6647,10.8338 32,13.5C 33.9596,10.4151 35.7929,7.24847 37.5,4C 42.1548,3.50085 46.8215,3.33418 51.5,3.5C 48.9252,9.81747 45.9252,15.9841 42.5,22C 51.4358,29.3159 53.9358,38.4826 50,49.5C 42.8988,60.1992 33.3988,63.0325 21.5,58C 11.0906,50.0818 8.92393,40.2485 15,28.5C 17.0165,26.316 19.1831,24.316 21.5,22.5C 17.6801,16.528 14.6801,10.1946 12.5,3.5 Z"/></g>
<g><path style="opacity:0.363" fill="#000000" d="M 57.5,3.5 C 59.6246,4.36758 59.7913,5.36758 58,6.5C 56.3167,5.82352 56.1501,4.82352 57.5,3.5 Z"/></g>
<g><path style="opacity:1" fill="#aa0024" d="M 28.5,21.5 C 28.1667,21.5 27.8333,21.5 27.5,21.5C 26.407,19.6508 25.0737,17.9842 23.5,16.5C 22.5903,13.0078 20.9236,10.0078 18.5,7.5C 18.9483,5.53545 19.9483,5.20211 21.5,6.5C 24.0407,11.0825 26.7074,15.5825 29.5,20C 28.944,20.3826 28.6107,20.8826 28.5,21.5 Z"/></g>
<g><path style="opacity:1" fill="#e20030" d="M 44.5,8.5 C 42.0764,11.0078 40.4097,14.0078 39.5,17.5C 38.6618,17.8417 38.3284,18.5084 38.5,19.5C 36.544,21.1751 35.2107,20.8418 34.5,18.5C 36.588,16.6644 37.9213,14.3311 38.5,11.5C 39.3382,11.1583 39.6716,10.4916 39.5,9.5C 40.7847,7.93782 42.2847,6.60449 44,5.5C 44.5,5.66667 45,5.83333 45.5,6C 44.7476,6.67076 44.4142,7.5041 44.5,8.5 Z"/></g>
<g><path style="opacity:0.363" fill="#000000" d="M 8.5,7.5 C 10.4646,7.94835 10.7979,8.94835 9.5,10.5C 7.4807,9.86709 7.14737,8.86709 8.5,7.5 Z"/></g>
<g><path style="opacity:1" fill="#30070b" d="M 18.5,7.5 C 20.9236,10.0078 22.5903,13.0078 23.5,16.5C 21.0764,13.9922 19.4097,10.9922 18.5,7.5 Z"/></g>
<g><path style="opacity:1" fill="#e50031" d="M 22.5,6.5 C 23.3864,5.2241 24.3864,5.2241 25.5,6.5C 26.7467,9.32858 28.2467,11.9952 30,14.5C 30.6667,15.8333 30.6667,17.1667 30,18.5C 27.7254,14.2676 25.2254,10.2676 22.5,6.5 Z"/></g>
<g><path style="opacity:0.465" fill="#04080c" d="M 52.5,10.5 C 59.1447,9.97718 60.8114,12.4772 57.5,18C 51.5933,18.7465 49.9267,16.2465 52.5,10.5 Z"/></g>
<g><path style="opacity:1" fill="#51a7e0" d="M 54.5,11.5 C 57.0838,12.0483 58.0838,13.715 57.5,16.5C 52.5162,16.8558 51.5162,15.1891 54.5,11.5 Z"/></g>
<g><path style="opacity:1" fill="#2f070a" d="M 44.5,8.5 C 43.5903,11.9922 41.9236,14.9922 39.5,17.5C 40.4097,14.0078 42.0764,11.0078 44.5,8.5 Z"/></g>
<g><path style="opacity:1" fill="#2c0609" d="M 38.5,11.5 C 37.9213,14.3311 36.588,16.6644 34.5,18.5C 35.0787,15.6689 36.412,13.3356 38.5,11.5 Z"/></g>
<g><path style="opacity:0.495" fill="#0a1014" d="M 6.5,15.5 C 14.0224,15.6698 16.0224,19.0031 12.5,25.5C 5.87447,27.7054 3.04114,25.372 4,18.5C 5.04499,17.6266 5.87833,16.6266 6.5,15.5 Z"/></g>
<g><path style="opacity:1" fill="#a50123" d="M 39.5,9.5 C 39.6716,10.4916 39.3382,11.1583 38.5,11.5C 36.412,13.3356 35.0787,15.6689 34.5,18.5C 33.5267,19.984 32.1933,20.484 30.5,20C 33.1667,15.3333 35.8333,10.6667 38.5,6C 39.3317,5.31232 39.9984,5.47899 40.5,6.5C 39.8728,7.41683 39.5394,8.41683 39.5,9.5 Z"/></g>
<g><path style="opacity:1" fill="#db002f" d="M 18.5,7.5 C 19.4097,10.9922 21.0764,13.9922 23.5,16.5C 23.7512,18.1703 24.4178,19.6703 25.5,21C 24.944,21.3826 24.6107,21.8826 24.5,22.5C 21.0667,17.1468 17.7334,11.6468 14.5,6C 16.1933,5.51597 17.5267,6.01597 18.5,7.5 Z"/></g>
<g><path style="opacity:1" fill="#59b8f7" d="M 7.5,17.5 C 11.9764,17.8003 13.3097,19.9669 11.5,24C 5.33887,24.878 4.00554,22.7113 7.5,17.5 Z"/></g>
<g><path style="opacity:1" fill="#a60224" d="M 38.5,19.5 C 38.3284,18.5084 38.6618,17.8417 39.5,17.5C 41.9236,14.9922 43.5903,11.9922 44.5,8.5C 45.7124,7.77013 46.7124,6.77013 47.5,5.5C 47.8333,5.83333 48.1667,6.16667 48.5,6.5C 46.034,11.4604 43.3673,16.2937 40.5,21C 39.184,21.5281 38.5173,21.0281 38.5,19.5 Z"/></g>
<g><path style="opacity:1" fill="#220605" d="M 23.5,16.5 C 25.0737,17.9842 26.407,19.6508 27.5,21.5C 26.791,22.404 25.791,22.7373 24.5,22.5C 24.6107,21.8826 24.944,21.3826 25.5,21C 24.4178,19.6703 23.7512,18.1703 23.5,16.5 Z"/></g>
<g><path style="opacity:0.424" fill="#000000" d="M 49.5,20.5 C 50.675,20.281 51.675,20.6143 52.5,21.5C 50.9483,22.7979 49.9483,22.4646 49.5,20.5 Z"/></g>
<g><path style="opacity:1" fill="#eac300" d="M 27.5,21.5 C 27.8333,21.5 28.1667,21.5 28.5,21.5C 46.6555,22.8274 53.1555,32.1608 48,49.5C 41.7772,58.0168 33.6105,60.5168 23.5,57C 15.2843,51.6987 12.1176,44.1987 14,34.5C 16.3598,29.4091 19.8598,25.4091 24.5,22.5C 25.791,22.7373 26.791,22.404 27.5,21.5 Z"/></g>
<g><path style="opacity:1" fill="#f5f5f5" d="M 37.5,27.5 C 38.4916,27.3284 39.1583,27.6618 39.5,28.5C 40.5,30.1667 41.8333,31.5 43.5,32.5C 45.2878,38.8516 44.6211,44.8516 41.5,50.5C 39.9731,50.427 38.9731,51.0937 38.5,52.5C 33.3482,54.063 28.3482,53.7297 23.5,51.5C 22.8333,50.1667 21.8333,49.1667 20.5,48.5C 16.1724,33.4896 21.839,26.4896 37.5,27.5 Z"/></g>
<g><path style="opacity:1" fill="#342c0e" d="M 39.5,28.5 C 41.8333,28.8333 43.1667,30.1667 43.5,32.5C 41.8333,31.5 40.5,30.1667 39.5,28.5 Z"/></g>
<g><path style="opacity:1" fill="#38352a" d="M 37.5,27.5 C 21.839,26.4896 16.1724,33.4896 20.5,48.5C 14.8507,38.7106 17.184,31.2106 27.5,26C 31.1476,25.1629 34.481,25.6629 37.5,27.5 Z"/></g>
<g><path style="opacity:0.424" fill="#000000" d="M 6.5,33.5 C 8.46455,33.9483 8.79789,34.9483 7.5,36.5C 6.61432,35.675 6.28099,34.675 6.5,33.5 Z"/></g>
<g><path style="opacity:1" fill="#2e2628" d="M 33.5,36.5 C 32.7784,36.0825 32.2784,35.4158 32,34.5C 31.7216,35.4158 31.2216,36.0825 30.5,36.5C 31.5,29.8333 32.5,29.8333 33.5,36.5 Z"/></g>
<g><path style="opacity:1" fill="#e30031" d="M 33.5,36.5 C 33.8807,37.9311 34.8807,38.7645 36.5,39C 35.944,39.3826 35.6107,39.8826 35.5,40.5C 34.8423,41.3984 34.1757,42.3984 33.5,43.5C 32.5,42.1667 31.5,42.1667 30.5,43.5C 29.8243,42.3984 29.1577,41.3984 28.5,40.5C 28.3893,39.8826 28.056,39.3826 27.5,39C 29.1193,38.7645 30.1193,37.9311 30.5,36.5C 31.2216,36.0825 31.7216,35.4158 32,34.5C 32.2784,35.4158 32.7784,36.0825 33.5,36.5 Z"/></g>
<g><path style="opacity:0.318" fill="#000000" d="M 55.5,36.5 C 58.9571,36.6672 59.2904,37.6672 56.5,39.5C 55.6143,38.675 55.281,37.675 55.5,36.5 Z"/></g>
<g><path style="opacity:1" fill="#4d2b2c" d="M 30.5,36.5 C 30.1193,37.9311 29.1193,38.7645 27.5,39C 28.056,39.3826 28.3893,39.8826 28.5,40.5C 21.9009,37.5152 22.5675,36.1818 30.5,36.5 Z"/></g>
<g><path style="opacity:1" fill="#3d292a" d="M 33.5,36.5 C 35.604,36.2011 37.604,36.5344 39.5,37.5C 38.7174,39.2882 37.3841,40.2882 35.5,40.5C 35.6107,39.8826 35.944,39.3826 36.5,39C 34.8807,38.7645 33.8807,37.9311 33.5,36.5 Z"/></g>
<g><path style="opacity:1" fill="#3e392a" d="M 43.5,32.5 C 45.6515,34.6071 46.6515,37.2738 46.5,40.5C 46.4033,44.6937 44.7366,48.027 41.5,50.5C 44.6211,44.8516 45.2878,38.8516 43.5,32.5 Z"/></g>
<g><path style="opacity:1" fill="#372020" d="M 28.5,40.5 C 29.1577,41.3984 29.8243,42.3984 30.5,43.5C 31.5,42.1667 32.5,42.1667 33.5,43.5C 34.1757,42.3984 34.8423,41.3984 35.5,40.5C 37.4712,45.6757 36.3045,47.009 32,44.5C 30.4411,45.0294 28.9411,45.696 27.5,46.5C 27.1667,46.1667 26.8333,45.8333 26.5,45.5C 27.4565,43.9246 28.1231,42.258 28.5,40.5 Z"/></g>
<g><path style="opacity:1" fill="#39300d" d="M 20.5,48.5 C 21.8333,49.1667 22.8333,50.1667 23.5,51.5C 21.5,51.5 20.5,50.5 20.5,48.5 Z"/></g>
<g><path style="opacity:1" fill="#262318" d="M 41.5,50.5 C 41.0269,51.9063 40.0269,52.573 38.5,52.5C 38.9731,51.0937 39.9731,50.427 41.5,50.5 Z"/></g>
<g><path style="opacity:0.318" fill="#000000" d="M 52.5,51.5 C 55.9571,51.6672 56.2904,52.6672 53.5,54.5C 52.6143,53.675 52.281,52.675 52.5,51.5 Z"/></g>
<g><path style="opacity:0.362" fill="#000000" d="M 12.5,53.5 C 15.6741,53.9522 16.0075,54.9522 13.5,56.5C 12.6143,55.675 12.281,54.675 12.5,53.5 Z"/></g>
<g><path style="opacity:1" fill="#242118" d="M 23.5,51.5 C 28.3482,53.7297 33.3482,54.063 38.5,52.5C 36.5379,54.0173 34.2046,54.6839 31.5,54.5C 28.1743,54.9272 25.5076,53.9272 23.5,51.5 Z"/></g>
</svg>
