<?xml version="1.0" encoding="UTF-8"?>
<!DOCTYPE svg PUBLIC "-//W3C//DTD SVG 1.1//EN" "http://www.w3.org/Graphics/SVG/1.1/DTD/svg11.dtd">
<svg xmlns="http://www.w3.org/2000/svg" version="1.1" width="65px" height="65px" style="shape-rendering:geometricPrecision; text-rendering:geometricPrecision; image-rendering:optimizeQuality; fill-rule:evenodd; clip-rule:evenodd" xmlns:xlink="http://www.w3.org/1999/xlink">
<g><path style="opacity:0.695" fill="#1d81cd" d="M 31.5,2.5 C 33.4646,2.94835 33.7979,3.94835 32.5,5.5C 30.4807,4.86709 30.1474,3.86709 31.5,2.5 Z"/></g>
<g><path style="opacity:0.553" fill="#1d81cb" d="M 58.5,3.5 C 60.6246,4.36758 60.7913,5.36758 59,6.5C 57.3167,5.82352 57.1501,4.82352 58.5,3.5 Z"/></g>
<g><path style="opacity:0.549" fill="#1d80cd" d="M 8.5,7.5 C 10.4646,7.94835 10.7979,8.94835 9.5,10.5C 8.61432,9.67504 8.28099,8.67504 8.5,7.5 Z"/></g>
<g><path style="opacity:0.655" fill="#358bd2" d="M 12.5,3.5 C 17.1785,3.33418 21.8452,3.50085 26.5,4C 28.139,7.45628 30.139,10.6229 32.5,13.5C 34.375,10.2489 36.375,7.08227 38.5,4C 43.3505,3.0658 48.0172,3.39913 52.5,5C 49.1667,11 45.8333,17 42.5,23C 51.0439,28.5962 54.2106,36.4295 52,46.5C 48.0097,57.4796 40.1763,62.313 28.5,61C 14.6479,56.8006 9.4812,47.6339 13,33.5C 15.1145,29.052 18.2811,25.552 22.5,23C 18.4815,16.7953 15.1482,10.2953 12.5,3.5 Z"/></g>
<g><path style="opacity:1" fill="#90c2fa" d="M 47.5,5.5 C 48.3764,5.36912 49.0431,5.70245 49.5,6.5C 37.3929,27.8433 36.7263,27.51 47.5,5.5 Z"/></g>
<g><path style="opacity:1" fill="#e7f1f9" d="M 14.5,6.5 C 15.3864,5.2241 16.3864,5.2241 17.5,6.5C 20.4212,11.3413 23.0879,16.3413 25.5,21.5C 25.1667,21.8333 24.8333,22.1667 24.5,22.5C 21.1417,17.1025 17.8084,11.7692 14.5,6.5 Z"/></g>
<g><path style="opacity:1" fill="#8fc1fa" d="M 37.5,14.5 C 35.8214,15.9997 34.4881,17.833 33.5,20C 32.8333,20.6667 32.1667,20.6667 31.5,20C 33.8879,14.711 36.8879,9.87762 40.5,5.5C 40.8333,5.66667 41.1667,5.83333 41.5,6C 39.7535,8.65865 38.4202,11.492 37.5,14.5 Z"/></g>
<g><path style="opacity:1" fill="#e5f0f9" d="M 23.5,5.5 C 24.4959,5.41423 25.3292,5.74756 26,6.5C 27.8333,10.1667 29.6667,13.8333 31.5,17.5C 31.1667,17.8333 30.8333,18.1667 30.5,18.5C 27.7075,14.3846 25.3741,10.0512 23.5,5.5 Z"/></g>
<g><path style="opacity:1" fill="#e9f2fa" d="M 37.5,14.5 C 39.642,12.2346 41.3087,9.56796 42.5,6.5C 43.5,5.16667 44.5,5.16667 45.5,6.5C 42.8627,11.7844 39.8627,16.7844 36.5,21.5C 36.1667,21 35.8333,20.5 35.5,20C 36.3195,18.1997 36.9862,16.3664 37.5,14.5 Z"/></g>
<g><path style="opacity:1" fill="#90c2fa" d="M 18.5,6.5 C 19.5417,5.20891 20.7083,5.20891 22,6.5C 24.2455,11.3257 26.7455,15.9923 29.5,20.5C 29.1667,20.8333 28.8333,21.1667 28.5,21.5C 24.9084,16.6434 21.575,11.6434 18.5,6.5 Z"/></g>
<g><path style="opacity:0.733" fill="#2f88d0" d="M 53.5,10.5 C 60.004,10.1377 61.6707,12.6377 58.5,18C 51.7982,18.8024 50.1315,16.3024 53.5,10.5 Z"/></g>
<g><path style="opacity:1" fill="#f1f7fc" d="M 54.5,12.5 C 55.8333,12.5 57.1667,12.5 58.5,12.5C 58.5,13.8333 58.5,15.1667 58.5,16.5C 54.56,17.234 53.2266,15.9007 54.5,12.5 Z"/></g>
<g><path style="opacity:0.275" fill="#2b86cf" d="M 8.5,15.5 C 13.8192,16.3264 15.6525,19.3264 14,24.5C 11.5808,27.6376 8.74745,28.1376 5.5,26C 2.40504,21.2014 3.40504,17.7014 8.5,15.5 Z"/></g>
<g><path style="opacity:1" fill="#f4f8fc" d="M 7.5,17.5 C 10.3523,17.3524 12.019,18.6857 12.5,21.5C 10.1667,26.8333 7.83333,26.8333 5.5,21.5C 5.75166,19.9271 6.41833,18.5938 7.5,17.5 Z"/></g>
<g><path style="opacity:0.452" fill="#1d84c8" d="M 50.5,20.5 C 51.5,20.5 52.5,20.5 53.5,20.5C 53.5,21.5 53.5,22.5 53.5,23.5C 52.5,23.5 51.5,23.5 50.5,23.5C 50.5,22.5 50.5,21.5 50.5,20.5 Z"/></g>
<g><path style="opacity:1" fill="#f1f7fc" d="M 26.5,22.5 C 43.6792,21.5113 51.5126,29.5113 50,46.5C 44.2351,58.7961 35.0684,62.2961 22.5,57C 11.7589,47.9951 10.7589,37.9951 19.5,27C 21.8981,25.4758 24.2314,23.9758 26.5,22.5 Z"/></g>
<g><path style="opacity:1" fill="#4a97d9" d="M 26.5,26.5 C 39.9953,24.5136 46.8286,30.1803 47,43.5C 44.153,53.3453 37.653,57.1786 27.5,55C 17.809,49.9271 15.309,42.4271 20,32.5C 22.0627,30.2659 24.2294,28.2659 26.5,26.5 Z"/></g>
<g><path style="opacity:1" fill="#98c7fe" d="M 28.5,27.5 C 43.6083,28.0484 48.4416,35.3818 43,49.5C 34.2151,56.9115 26.5485,55.9115 20,46.5C 17.4545,37.6004 20.2878,31.2671 28.5,27.5 Z"/></g>
<g><path style="opacity:0.522" fill="#1e7fcc" d="M 6.5,34.5 C 8.46455,34.9483 8.79789,35.9483 7.5,37.5C 6.61432,36.675 6.28099,35.675 6.5,34.5 Z"/></g>
<g><path style="opacity:1" fill="#3a8ed5" d="M 31.5,32.5 C 33.7409,33.2998 34.7409,34.9664 34.5,37.5C 36.604,37.2011 38.604,37.5344 40.5,38.5C 38.8333,39.5 37.5,40.8333 36.5,42.5C 37.6808,44.198 37.6808,45.8647 36.5,47.5C 33.8333,44.8333 31.1667,44.8333 28.5,47.5C 27.3192,45.8647 27.3192,44.198 28.5,42.5C 27.5,40.8333 26.1667,39.5 24.5,38.5C 26.396,37.5344 28.396,37.2011 30.5,37.5C 30.6287,35.7839 30.962,34.1172 31.5,32.5 Z"/></g>
<g><path style="opacity:1" fill="#e0edf8" d="M 31.5,36.5 C 33.3386,37.5819 35.3386,38.4153 37.5,39C 35.9963,40.4907 35.1629,42.324 35,44.5C 33.5421,43.2532 32.0421,43.2532 30.5,44.5C 29.8659,42.4332 28.8659,40.5998 27.5,39C 29.437,38.8784 30.7703,38.045 31.5,36.5 Z"/></g>
<g><path style="opacity:0.641" fill="#2082d0" d="M 57.5,36.5 C 59.6246,37.3676 59.7913,38.3676 58,39.5C 56.3167,38.8235 56.1501,37.8235 57.5,36.5 Z"/></g>
<g><path style="opacity:0.687" fill="#1d80cd" d="M 53.5,52.5 C 55.337,52.6395 55.6704,53.3061 54.5,54.5C 53.7025,54.0431 53.3691,53.3764 53.5,52.5 Z"/></g>
<g><path style="opacity:0.428" fill="#1d7fd1" d="M 12.5,54.5 C 13.5,54.5 14.5,54.5 15.5,54.5C 15.5,55.5 15.5,56.5 15.5,57.5C 14.5,57.5 13.5,57.5 12.5,57.5C 12.5,56.5 12.5,55.5 12.5,54.5 Z"/></g>
</svg>
